<?xml version="1.0" encoding="utf-8" standalone="no"?>
<!DOCTYPE svg PUBLIC "-//W3C//DTD SVG 1.1//EN"
  "http://www.w3.org/Graphics/SVG/1.1/DTD/svg11.dtd">
<!-- Created with matplotlib (http://matplotlib.org/) -->
<svg height="1080pt" version="1.1" viewBox="0 0 1440 1080" width="1440pt" xmlns="http://www.w3.org/2000/svg" xmlns:xlink="http://www.w3.org/1999/xlink">
 <defs>
  <style type="text/css">
*{stroke-linecap:butt;stroke-linejoin:round;}
  </style>
 </defs>
 <g id="figure_1">
  <g id="patch_1">
   <path d="M 0 1080 
L 1440 1080 
L 1440 0 
L 0 0 
z
" style="fill:#ffffff;"/>
  </g>
  <g id="axes_1">
   <g id="matplotlib.axis_1"/>
   <g id="matplotlib.axis_2"/>
   <g id="patch_2">
    <path d="M 121.917743 351.816024 
C 107.561706 351.816024 93.513553 356.0095 81.506631 363.879037 
C 69.499708 371.748573 60.049024 382.956624 54.320661 396.120273 
C 48.592298 409.283922 46.831961 423.838545 49.256851 437.988305 
C 51.68174 452.138065 58.187846 465.27604 67.972407 475.78119 
C 77.756968 486.28634 90.400296 493.708069 104.342384 497.130641 
C 118.284471 500.553213 132.927303 499.829823 146.46416 495.049729 
C 160.001017 490.269634 171.851266 481.637866 180.552753 470.219464 
C 189.254241 458.801061 194.433735 445.08579 195.45216 430.765922 
L 121.917743 425.536175 
L 121.917743 351.816024 
z
" style="fill:#172235;opacity:0.5;stroke:#172235;stroke-linejoin:miter;stroke-width:0.3;"/>
   </g>
   <g id="patch_3">
    <path d="M 206.241228 420.71692 
C 206.959244 410.621031 205.590459 400.484605 202.220365 390.940759 
C 198.850272 381.396913 193.550527 372.648575 186.652151 365.242164 
C 179.753775 357.835752 171.403446 351.928746 162.122723 347.890096 
C 152.841999 343.851446 142.828214 341.767024 132.706825 341.767022 
L 132.706811 415.487173 
L 206.241228 420.71692 
z
" style="fill:#19321f;opacity:0.5;stroke:#19321f;stroke-linejoin:miter;stroke-width:0.3;"/>
   </g>
   <g id="patch_4">
    <path d="M 123.392146 350.341621 
C 109.036109 350.341621 94.987957 354.535097 82.981034 362.404634 
C 70.974111 370.27417 61.523427 381.482221 55.795064 394.64587 
C 50.066701 407.809519 48.306364 422.364141 50.731254 436.513902 
C 53.156143 450.663662 59.662249 463.801637 69.44681 474.306787 
C 79.231371 484.811937 91.874699 492.233666 105.816787 495.656238 
C 119.758874 499.07881 134.401706 498.35542 147.938563 493.575326 
C 161.47542 488.795231 173.325669 480.163463 182.027157 468.745061 
C 190.728644 457.326658 195.908138 443.611387 196.926563 429.291519 
L 123.392146 424.061772 
L 123.392146 350.341621 
z
" style="fill:#4c72b0;"/>
   </g>
   <g id="patch_5">
    <path d="M 207.715631 419.242517 
C 208.433647 409.146628 207.064862 399.010202 203.694768 389.466356 
C 200.324675 379.92251 195.02493 371.174172 188.126554 363.767761 
C 181.228178 356.361349 172.877849 350.454343 163.597126 346.415693 
C 154.316402 342.377043 144.302617 340.292621 134.181228 340.292619 
L 134.181214 414.01277 
L 207.715631 419.242517 
z
" style="fill:#55a868;"/>
   </g>
   <g id="text_1">
    <!-- Yea -->
    <defs>
     <path d="M 27.875 0 
L 27.875 30.328125 
L 0.296875 71.578125 
L 11.8125 71.578125 
L 25.921875 50 
Q 29.828125 43.953125 33.203125 37.890625 
Q 36.421875 43.5 41.015625 50.53125 
L 54.890625 71.578125 
L 65.921875 71.578125 
L 37.359375 30.328125 
L 37.359375 0 
z
" id="ArialMT-59"/>
     <path d="M 42.09375 16.703125 
L 51.171875 15.578125 
Q 49.03125 7.625 43.21875 3.21875 
Q 37.40625 -1.171875 28.375 -1.171875 
Q 17 -1.171875 10.328125 5.828125 
Q 3.65625 12.84375 3.65625 25.484375 
Q 3.65625 38.578125 10.390625 45.796875 
Q 17.140625 53.03125 27.875 53.03125 
Q 38.28125 53.03125 44.875 45.953125 
Q 51.46875 38.875 51.46875 26.03125 
Q 51.46875 25.25 51.421875 23.6875 
L 12.75 23.6875 
Q 13.234375 15.140625 17.578125 10.59375 
Q 21.921875 6.0625 28.421875 6.0625 
Q 33.25 6.0625 36.671875 8.59375 
Q 40.09375 11.140625 42.09375 16.703125 
z
M 13.234375 30.90625 
L 42.1875 30.90625 
Q 41.609375 37.453125 38.875 40.71875 
Q 34.671875 45.796875 27.984375 45.796875 
Q 21.921875 45.796875 17.796875 41.75 
Q 13.671875 37.703125 13.234375 30.90625 
z
" id="ArialMT-65"/>
     <path d="M 40.4375 6.390625 
Q 35.546875 2.25 31.03125 0.53125 
Q 26.515625 -1.171875 21.34375 -1.171875 
Q 12.796875 -1.171875 8.203125 3 
Q 3.609375 7.171875 3.609375 13.671875 
Q 3.609375 17.484375 5.34375 20.625 
Q 7.078125 23.78125 9.890625 25.6875 
Q 12.703125 27.59375 16.21875 28.5625 
Q 18.796875 29.25 24.03125 29.890625 
Q 34.671875 31.15625 39.703125 32.90625 
Q 39.75 34.71875 39.75 35.203125 
Q 39.75 40.578125 37.25 42.78125 
Q 33.890625 45.75 27.25 45.75 
Q 21.046875 45.75 18.09375 43.578125 
Q 15.140625 41.40625 13.71875 35.890625 
L 5.125 37.0625 
Q 6.296875 42.578125 8.984375 45.96875 
Q 11.671875 49.359375 16.75 51.1875 
Q 21.828125 53.03125 28.515625 53.03125 
Q 35.15625 53.03125 39.296875 51.46875 
Q 43.453125 49.90625 45.40625 47.53125 
Q 47.359375 45.171875 48.140625 41.546875 
Q 48.578125 39.3125 48.578125 33.453125 
L 48.578125 21.734375 
Q 48.578125 9.46875 49.140625 6.21875 
Q 49.703125 2.984375 51.375 0 
L 42.1875 0 
Q 40.828125 2.734375 40.4375 6.390625 
z
M 39.703125 26.03125 
Q 34.90625 24.078125 25.34375 22.703125 
Q 19.921875 21.921875 17.671875 20.9375 
Q 15.4375 19.96875 14.203125 18.09375 
Q 12.984375 16.21875 12.984375 13.921875 
Q 12.984375 10.40625 15.640625 8.0625 
Q 18.3125 5.71875 23.4375 5.71875 
Q 28.515625 5.71875 32.46875 7.9375 
Q 36.421875 10.15625 38.28125 14.015625 
Q 39.703125 17 39.703125 22.796875 
z
" id="ArialMT-61"/>
    </defs>
    <g style="fill:#262626;" transform="translate(46.274152 481.916445)scale(0.1 -0.1)">
     <use xlink:href="#ArialMT-59"/>
     <use x="66.558594" xlink:href="#ArialMT-65"/>
     <use x="122.173828" xlink:href="#ArialMT-61"/>
    </g>
   </g>
   <g id="text_2">
    <!-- 73.9% -->
    <defs>
     <path d="M 4.734375 62.203125 
L 4.734375 70.65625 
L 51.078125 70.65625 
L 51.078125 63.8125 
Q 44.234375 56.546875 37.515625 44.484375 
Q 30.8125 32.421875 27.15625 19.671875 
Q 24.515625 10.6875 23.78125 0 
L 14.75 0 
Q 14.890625 8.453125 18.0625 20.40625 
Q 21.234375 32.375 27.171875 43.484375 
Q 33.109375 54.59375 39.796875 62.203125 
z
" id="ArialMT-37"/>
     <path d="M 4.203125 18.890625 
L 12.984375 20.0625 
Q 14.5 12.59375 18.140625 9.296875 
Q 21.78125 6 27 6 
Q 33.203125 6 37.46875 10.296875 
Q 41.75 14.59375 41.75 20.953125 
Q 41.75 27 37.796875 30.921875 
Q 33.84375 34.859375 27.734375 34.859375 
Q 25.25 34.859375 21.53125 33.890625 
L 22.515625 41.609375 
Q 23.390625 41.5 23.921875 41.5 
Q 29.546875 41.5 34.03125 44.421875 
Q 38.53125 47.359375 38.53125 53.46875 
Q 38.53125 58.296875 35.25 61.46875 
Q 31.984375 64.65625 26.8125 64.65625 
Q 21.6875 64.65625 18.265625 61.421875 
Q 14.84375 58.203125 13.875 51.765625 
L 5.078125 53.328125 
Q 6.6875 62.15625 12.390625 67.015625 
Q 18.109375 71.875 26.609375 71.875 
Q 32.46875 71.875 37.390625 69.359375 
Q 42.328125 66.84375 44.9375 62.5 
Q 47.5625 58.15625 47.5625 53.265625 
Q 47.5625 48.640625 45.0625 44.828125 
Q 42.578125 41.015625 37.703125 38.765625 
Q 44.046875 37.3125 47.5625 32.6875 
Q 51.078125 28.078125 51.078125 21.140625 
Q 51.078125 11.765625 44.234375 5.25 
Q 37.40625 -1.265625 26.953125 -1.265625 
Q 17.53125 -1.265625 11.296875 4.34375 
Q 5.078125 9.96875 4.203125 18.890625 
z
" id="ArialMT-33"/>
     <path d="M 9.078125 0 
L 9.078125 10.015625 
L 19.09375 10.015625 
L 19.09375 0 
z
" id="ArialMT-2e"/>
     <path d="M 5.46875 16.546875 
L 13.921875 17.328125 
Q 14.984375 11.375 18.015625 8.6875 
Q 21.046875 6 25.78125 6 
Q 29.828125 6 32.875 7.859375 
Q 35.9375 9.71875 37.890625 12.8125 
Q 39.84375 15.921875 41.15625 21.1875 
Q 42.484375 26.46875 42.484375 31.9375 
Q 42.484375 32.515625 42.4375 33.6875 
Q 39.796875 29.5 35.234375 26.875 
Q 30.671875 24.265625 25.34375 24.265625 
Q 16.453125 24.265625 10.296875 30.703125 
Q 4.15625 37.15625 4.15625 47.703125 
Q 4.15625 58.59375 10.578125 65.234375 
Q 17 71.875 26.65625 71.875 
Q 33.640625 71.875 39.421875 68.109375 
Q 45.21875 64.359375 48.21875 57.390625 
Q 51.21875 50.4375 51.21875 37.25 
Q 51.21875 23.53125 48.234375 15.40625 
Q 45.265625 7.28125 39.375 3.03125 
Q 33.5 -1.21875 25.59375 -1.21875 
Q 17.1875 -1.21875 11.859375 3.4375 
Q 6.546875 8.109375 5.46875 16.546875 
z
M 41.453125 48.140625 
Q 41.453125 55.71875 37.421875 60.15625 
Q 33.40625 64.59375 27.734375 64.59375 
Q 21.875 64.59375 17.53125 59.8125 
Q 13.1875 55.03125 13.1875 47.40625 
Q 13.1875 40.578125 17.3125 36.296875 
Q 21.4375 32.03125 27.484375 32.03125 
Q 33.59375 32.03125 37.515625 36.296875 
Q 41.453125 40.578125 41.453125 48.140625 
z
" id="ArialMT-39"/>
     <path d="M 5.8125 54.390625 
Q 5.8125 62.0625 9.671875 67.421875 
Q 13.53125 72.796875 20.84375 72.796875 
Q 27.59375 72.796875 32 67.984375 
Q 36.421875 63.1875 36.421875 53.859375 
Q 36.421875 44.78125 31.953125 39.875 
Q 27.484375 34.96875 20.953125 34.96875 
Q 14.453125 34.96875 10.125 39.796875 
Q 5.8125 44.625 5.8125 54.390625 
z
M 21.09375 66.75 
Q 17.828125 66.75 15.65625 63.90625 
Q 13.484375 61.078125 13.484375 53.515625 
Q 13.484375 46.625 15.671875 43.8125 
Q 17.875 41.015625 21.09375 41.015625 
Q 24.421875 41.015625 26.59375 43.84375 
Q 28.765625 46.6875 28.765625 54.203125 
Q 28.765625 61.140625 26.5625 63.9375 
Q 24.359375 66.75 21.09375 66.75 
z
M 21.140625 -2.640625 
L 60.296875 72.796875 
L 67.4375 72.796875 
L 28.421875 -2.640625 
z
M 52.09375 16.796875 
Q 52.09375 24.515625 55.953125 29.859375 
Q 59.8125 35.203125 67.1875 35.203125 
Q 73.921875 35.203125 78.34375 30.390625 
Q 82.765625 25.59375 82.765625 16.265625 
Q 82.765625 7.171875 78.296875 2.265625 
Q 73.828125 -2.640625 67.234375 -2.640625 
Q 60.75 -2.640625 56.421875 2.21875 
Q 52.09375 7.078125 52.09375 16.796875 
z
M 67.4375 29.15625 
Q 64.109375 29.15625 61.9375 26.3125 
Q 59.765625 23.484375 59.765625 15.921875 
Q 59.765625 9.078125 61.953125 6.25 
Q 64.15625 3.421875 67.390625 3.421875 
Q 70.75 3.421875 72.921875 6.25 
Q 75.09375 9.078125 75.09375 16.609375 
Q 75.09375 23.53125 72.890625 26.34375 
Q 70.703125 29.15625 67.4375 29.15625 
z
" id="ArialMT-25"/>
    </defs>
    <g style="fill:#262626;" transform="translate(76.848382 456.793938)scale(0.1 -0.1)">
     <use xlink:href="#ArialMT-37"/>
     <use x="55.615234" xlink:href="#ArialMT-33"/>
     <use x="111.230469" xlink:href="#ArialMT-2e"/>
     <use x="139.013672" xlink:href="#ArialMT-39"/>
     <use x="194.628906" xlink:href="#ArialMT-25"/>
    </g>
   </g>
   <g id="text_3">
    <!-- Nay -->
    <defs>
     <path d="M 7.625 0 
L 7.625 71.578125 
L 17.328125 71.578125 
L 54.9375 15.375 
L 54.9375 71.578125 
L 64.015625 71.578125 
L 64.015625 0 
L 54.296875 0 
L 16.703125 56.25 
L 16.703125 0 
z
" id="ArialMT-4e"/>
     <path d="M 6.203125 -19.96875 
L 5.21875 -11.71875 
Q 8.109375 -12.5 10.25 -12.5 
Q 13.1875 -12.5 14.9375 -11.515625 
Q 16.703125 -10.546875 17.828125 -8.796875 
Q 18.65625 -7.46875 20.515625 -2.25 
Q 20.75 -1.515625 21.296875 -0.09375 
L 1.609375 51.859375 
L 11.078125 51.859375 
L 21.875 21.828125 
Q 23.96875 16.109375 25.640625 9.8125 
Q 27.15625 15.875 29.25 21.625 
L 40.328125 51.859375 
L 49.125 51.859375 
L 29.390625 -0.875 
Q 26.21875 -9.421875 24.46875 -12.640625 
Q 22.125 -17 19.09375 -19.015625 
Q 16.0625 -21.046875 11.859375 -21.046875 
Q 9.328125 -21.046875 6.203125 -19.96875 
z
" id="ArialMT-79"/>
    </defs>
    <g style="fill:#262626;" transform="translate(193.521088 361.269822)scale(0.1 -0.1)">
     <use xlink:href="#ArialMT-4e"/>
     <use x="72.216797" xlink:href="#ArialMT-61"/>
     <use x="127.832031" xlink:href="#ArialMT-79"/>
    </g>
   </g>
   <g id="text_4">
    <!-- 26.1% -->
    <defs>
     <path d="M 50.34375 8.453125 
L 50.34375 0 
L 3.03125 0 
Q 2.9375 3.171875 4.046875 6.109375 
Q 5.859375 10.9375 9.828125 15.625 
Q 13.8125 20.3125 21.34375 26.46875 
Q 33.015625 36.03125 37.109375 41.625 
Q 41.21875 47.21875 41.21875 52.203125 
Q 41.21875 57.421875 37.46875 61 
Q 33.734375 64.59375 27.734375 64.59375 
Q 21.390625 64.59375 17.578125 60.78125 
Q 13.765625 56.984375 13.71875 50.25 
L 4.6875 51.171875 
Q 5.609375 61.28125 11.65625 66.578125 
Q 17.71875 71.875 27.9375 71.875 
Q 38.234375 71.875 44.234375 66.15625 
Q 50.25 60.453125 50.25 52 
Q 50.25 47.703125 48.484375 43.546875 
Q 46.734375 39.40625 42.65625 34.8125 
Q 38.578125 30.21875 29.109375 22.21875 
Q 21.1875 15.578125 18.9375 13.203125 
Q 16.703125 10.84375 15.234375 8.453125 
z
" id="ArialMT-32"/>
     <path d="M 49.75 54.046875 
L 41.015625 53.375 
Q 39.84375 58.546875 37.703125 60.890625 
Q 34.125 64.65625 28.90625 64.65625 
Q 24.703125 64.65625 21.53125 62.3125 
Q 17.390625 59.28125 14.984375 53.46875 
Q 12.59375 47.65625 12.5 36.921875 
Q 15.671875 41.75 20.265625 44.09375 
Q 24.859375 46.4375 29.890625 46.4375 
Q 38.671875 46.4375 44.84375 39.96875 
Q 51.03125 33.5 51.03125 23.25 
Q 51.03125 16.5 48.125 10.71875 
Q 45.21875 4.9375 40.140625 1.859375 
Q 35.0625 -1.21875 28.609375 -1.21875 
Q 17.625 -1.21875 10.6875 6.859375 
Q 3.765625 14.9375 3.765625 33.5 
Q 3.765625 54.25 11.421875 63.671875 
Q 18.109375 71.875 29.4375 71.875 
Q 37.890625 71.875 43.28125 67.140625 
Q 48.6875 62.40625 49.75 54.046875 
z
M 13.875 23.1875 
Q 13.875 18.65625 15.796875 14.5 
Q 17.71875 10.359375 21.1875 8.171875 
Q 24.65625 6 28.46875 6 
Q 34.03125 6 38.03125 10.484375 
Q 42.046875 14.984375 42.046875 22.703125 
Q 42.046875 30.125 38.078125 34.390625 
Q 34.125 38.671875 28.125 38.671875 
Q 22.171875 38.671875 18.015625 34.390625 
Q 13.875 30.125 13.875 23.1875 
z
" id="ArialMT-36"/>
     <path d="M 37.25 0 
L 28.46875 0 
L 28.46875 56 
Q 25.296875 52.984375 20.140625 49.953125 
Q 14.984375 46.921875 10.890625 45.40625 
L 10.890625 53.90625 
Q 18.265625 57.375 23.78125 62.296875 
Q 29.296875 67.234375 31.59375 71.875 
L 37.25 71.875 
z
" id="ArialMT-31"/>
    </defs>
    <g style="fill:#262626;" transform="translate(152.371855 386.450921)scale(0.1 -0.1)">
     <use xlink:href="#ArialMT-32"/>
     <use x="55.615234" xlink:href="#ArialMT-36"/>
     <use x="111.230469" xlink:href="#ArialMT-2e"/>
     <use x="139.013672" xlink:href="#ArialMT-31"/>
     <use x="194.628906" xlink:href="#ArialMT-25"/>
    </g>
   </g>
   <g id="text_5">
    <!-- customer has friends -->
    <defs>
     <path d="M 40.4375 19 
L 49.078125 17.875 
Q 47.65625 8.9375 41.8125 3.875 
Q 35.984375 -1.171875 27.484375 -1.171875 
Q 16.84375 -1.171875 10.375 5.78125 
Q 3.90625 12.75 3.90625 25.734375 
Q 3.90625 34.125 6.6875 40.421875 
Q 9.46875 46.734375 15.15625 49.875 
Q 20.84375 53.03125 27.546875 53.03125 
Q 35.984375 53.03125 41.359375 48.75 
Q 46.734375 44.484375 48.25 36.625 
L 39.703125 35.296875 
Q 38.484375 40.53125 35.375 43.15625 
Q 32.28125 45.796875 27.875 45.796875 
Q 21.234375 45.796875 17.078125 41.03125 
Q 12.9375 36.28125 12.9375 25.984375 
Q 12.9375 15.53125 16.9375 10.796875 
Q 20.953125 6.0625 27.390625 6.0625 
Q 32.5625 6.0625 36.03125 9.234375 
Q 39.5 12.40625 40.4375 19 
z
" id="ArialMT-63"/>
     <path d="M 40.578125 0 
L 40.578125 7.625 
Q 34.515625 -1.171875 24.125 -1.171875 
Q 19.53125 -1.171875 15.546875 0.578125 
Q 11.578125 2.34375 9.640625 5 
Q 7.71875 7.671875 6.9375 11.53125 
Q 6.390625 14.109375 6.390625 19.734375 
L 6.390625 51.859375 
L 15.1875 51.859375 
L 15.1875 23.09375 
Q 15.1875 16.21875 15.71875 13.8125 
Q 16.546875 10.359375 19.234375 8.375 
Q 21.921875 6.390625 25.875 6.390625 
Q 29.828125 6.390625 33.296875 8.421875 
Q 36.765625 10.453125 38.203125 13.9375 
Q 39.65625 17.4375 39.65625 24.078125 
L 39.65625 51.859375 
L 48.4375 51.859375 
L 48.4375 0 
z
" id="ArialMT-75"/>
     <path d="M 3.078125 15.484375 
L 11.765625 16.84375 
Q 12.5 11.625 15.84375 8.84375 
Q 19.1875 6.0625 25.203125 6.0625 
Q 31.25 6.0625 34.171875 8.515625 
Q 37.109375 10.984375 37.109375 14.3125 
Q 37.109375 17.28125 34.515625 19 
Q 32.71875 20.171875 25.53125 21.96875 
Q 15.875 24.421875 12.140625 26.203125 
Q 8.40625 27.984375 6.46875 31.125 
Q 4.546875 34.28125 4.546875 38.09375 
Q 4.546875 41.546875 6.125 44.5 
Q 7.71875 47.46875 10.453125 49.421875 
Q 12.5 50.921875 16.03125 51.96875 
Q 19.578125 53.03125 23.640625 53.03125 
Q 29.734375 53.03125 34.34375 51.265625 
Q 38.96875 49.515625 41.15625 46.5 
Q 43.359375 43.5 44.1875 38.484375 
L 35.59375 37.3125 
Q 35.015625 41.3125 32.203125 43.546875 
Q 29.390625 45.796875 24.265625 45.796875 
Q 18.21875 45.796875 15.625 43.796875 
Q 13.03125 41.796875 13.03125 39.109375 
Q 13.03125 37.40625 14.109375 36.03125 
Q 15.1875 34.625 17.484375 33.6875 
Q 18.796875 33.203125 25.25 31.453125 
Q 34.578125 28.953125 38.25 27.359375 
Q 41.9375 25.78125 44.03125 22.75 
Q 46.140625 19.734375 46.140625 15.234375 
Q 46.140625 10.84375 43.578125 6.953125 
Q 41.015625 3.078125 36.171875 0.953125 
Q 31.34375 -1.171875 25.25 -1.171875 
Q 15.140625 -1.171875 9.84375 3.03125 
Q 4.546875 7.234375 3.078125 15.484375 
z
" id="ArialMT-73"/>
     <path d="M 25.78125 7.859375 
L 27.046875 0.09375 
Q 23.34375 -0.6875 20.40625 -0.6875 
Q 15.625 -0.6875 12.984375 0.828125 
Q 10.359375 2.34375 9.28125 4.8125 
Q 8.203125 7.28125 8.203125 15.1875 
L 8.203125 45.015625 
L 1.765625 45.015625 
L 1.765625 51.859375 
L 8.203125 51.859375 
L 8.203125 64.703125 
L 16.9375 69.96875 
L 16.9375 51.859375 
L 25.78125 51.859375 
L 25.78125 45.015625 
L 16.9375 45.015625 
L 16.9375 14.703125 
Q 16.9375 10.9375 17.40625 9.859375 
Q 17.875 8.796875 18.921875 8.15625 
Q 19.96875 7.515625 21.921875 7.515625 
Q 23.390625 7.515625 25.78125 7.859375 
z
" id="ArialMT-74"/>
     <path d="M 3.328125 25.921875 
Q 3.328125 40.328125 11.328125 47.265625 
Q 18.015625 53.03125 27.640625 53.03125 
Q 38.328125 53.03125 45.109375 46.015625 
Q 51.90625 39.015625 51.90625 26.65625 
Q 51.90625 16.65625 48.90625 10.90625 
Q 45.90625 5.171875 40.15625 2 
Q 34.421875 -1.171875 27.640625 -1.171875 
Q 16.75 -1.171875 10.03125 5.8125 
Q 3.328125 12.796875 3.328125 25.921875 
z
M 12.359375 25.921875 
Q 12.359375 15.96875 16.703125 11.015625 
Q 21.046875 6.0625 27.640625 6.0625 
Q 34.1875 6.0625 38.53125 11.03125 
Q 42.875 16.015625 42.875 26.21875 
Q 42.875 35.84375 38.5 40.796875 
Q 34.125 45.75 27.640625 45.75 
Q 21.046875 45.75 16.703125 40.8125 
Q 12.359375 35.890625 12.359375 25.921875 
z
" id="ArialMT-6f"/>
     <path d="M 6.59375 0 
L 6.59375 51.859375 
L 14.453125 51.859375 
L 14.453125 44.578125 
Q 16.890625 48.390625 20.9375 50.703125 
Q 25 53.03125 30.171875 53.03125 
Q 35.9375 53.03125 39.625 50.640625 
Q 43.3125 48.25 44.828125 43.953125 
Q 50.984375 53.03125 60.84375 53.03125 
Q 68.5625 53.03125 72.703125 48.75 
Q 76.859375 44.484375 76.859375 35.59375 
L 76.859375 0 
L 68.109375 0 
L 68.109375 32.671875 
Q 68.109375 37.9375 67.25 40.25 
Q 66.40625 42.578125 64.15625 43.984375 
Q 61.921875 45.40625 58.890625 45.40625 
Q 53.421875 45.40625 49.796875 41.765625 
Q 46.1875 38.140625 46.1875 30.125 
L 46.1875 0 
L 37.40625 0 
L 37.40625 33.6875 
Q 37.40625 39.546875 35.25 42.46875 
Q 33.109375 45.40625 28.21875 45.40625 
Q 24.515625 45.40625 21.359375 43.453125 
Q 18.21875 41.5 16.796875 37.734375 
Q 15.375 33.984375 15.375 26.90625 
L 15.375 0 
z
" id="ArialMT-6d"/>
     <path d="M 6.5 0 
L 6.5 51.859375 
L 14.40625 51.859375 
L 14.40625 44 
Q 17.4375 49.515625 20 51.265625 
Q 22.5625 53.03125 25.640625 53.03125 
Q 30.078125 53.03125 34.671875 50.203125 
L 31.640625 42.046875 
Q 28.421875 43.953125 25.203125 43.953125 
Q 22.3125 43.953125 20.015625 42.21875 
Q 17.71875 40.484375 16.75 37.40625 
Q 15.28125 32.71875 15.28125 27.15625 
L 15.28125 0 
z
" id="ArialMT-72"/>
     <path id="ArialMT-20"/>
     <path d="M 6.59375 0 
L 6.59375 71.578125 
L 15.375 71.578125 
L 15.375 45.90625 
Q 21.53125 53.03125 30.90625 53.03125 
Q 36.671875 53.03125 40.921875 50.75 
Q 45.171875 48.484375 47 44.484375 
Q 48.828125 40.484375 48.828125 32.859375 
L 48.828125 0 
L 40.046875 0 
L 40.046875 32.859375 
Q 40.046875 39.453125 37.1875 42.453125 
Q 34.328125 45.453125 29.109375 45.453125 
Q 25.203125 45.453125 21.75 43.421875 
Q 18.3125 41.40625 16.84375 37.9375 
Q 15.375 34.46875 15.375 28.375 
L 15.375 0 
z
" id="ArialMT-68"/>
     <path d="M 8.6875 0 
L 8.6875 45.015625 
L 0.921875 45.015625 
L 0.921875 51.859375 
L 8.6875 51.859375 
L 8.6875 57.375 
Q 8.6875 62.59375 9.625 65.140625 
Q 10.890625 68.5625 14.078125 70.671875 
Q 17.28125 72.796875 23.046875 72.796875 
Q 26.765625 72.796875 31.25 71.921875 
L 29.9375 64.265625 
Q 27.203125 64.75 24.75 64.75 
Q 20.75 64.75 19.09375 63.03125 
Q 17.4375 61.328125 17.4375 56.640625 
L 17.4375 51.859375 
L 27.546875 51.859375 
L 27.546875 45.015625 
L 17.4375 45.015625 
L 17.4375 0 
z
" id="ArialMT-66"/>
     <path d="M 6.640625 61.46875 
L 6.640625 71.578125 
L 15.4375 71.578125 
L 15.4375 61.46875 
z
M 6.640625 0 
L 6.640625 51.859375 
L 15.4375 51.859375 
L 15.4375 0 
z
" id="ArialMT-69"/>
     <path d="M 6.59375 0 
L 6.59375 51.859375 
L 14.5 51.859375 
L 14.5 44.484375 
Q 20.21875 53.03125 31 53.03125 
Q 35.6875 53.03125 39.625 51.34375 
Q 43.5625 49.65625 45.515625 46.921875 
Q 47.46875 44.1875 48.25 40.4375 
Q 48.734375 37.984375 48.734375 31.890625 
L 48.734375 0 
L 39.9375 0 
L 39.9375 31.546875 
Q 39.9375 36.921875 38.90625 39.578125 
Q 37.890625 42.234375 35.28125 43.8125 
Q 32.671875 45.40625 29.15625 45.40625 
Q 23.53125 45.40625 19.453125 41.84375 
Q 15.375 38.28125 15.375 28.328125 
L 15.375 0 
z
" id="ArialMT-6e"/>
     <path d="M 40.234375 0 
L 40.234375 6.546875 
Q 35.296875 -1.171875 25.734375 -1.171875 
Q 19.53125 -1.171875 14.328125 2.25 
Q 9.125 5.671875 6.265625 11.796875 
Q 3.421875 17.921875 3.421875 25.875 
Q 3.421875 33.640625 6 39.96875 
Q 8.59375 46.296875 13.765625 49.65625 
Q 18.953125 53.03125 25.34375 53.03125 
Q 30.03125 53.03125 33.6875 51.046875 
Q 37.359375 49.078125 39.65625 45.90625 
L 39.65625 71.578125 
L 48.390625 71.578125 
L 48.390625 0 
z
M 12.453125 25.875 
Q 12.453125 15.921875 16.640625 10.984375 
Q 20.84375 6.0625 26.5625 6.0625 
Q 32.328125 6.0625 36.34375 10.765625 
Q 40.375 15.484375 40.375 25.140625 
Q 40.375 35.796875 36.265625 40.765625 
Q 32.171875 45.75 26.171875 45.75 
Q 20.3125 45.75 16.375 40.96875 
Q 12.453125 36.1875 12.453125 25.875 
z
" id="ArialMT-64"/>
    </defs>
    <g style="fill:#262626;" transform="translate(72.683443 71.420875)scale(0.12 -0.12)">
     <use xlink:href="#ArialMT-63"/>
     <use x="50" xlink:href="#ArialMT-75"/>
     <use x="105.615234" xlink:href="#ArialMT-73"/>
     <use x="155.615234" xlink:href="#ArialMT-74"/>
     <use x="183.398438" xlink:href="#ArialMT-6f"/>
     <use x="239.013672" xlink:href="#ArialMT-6d"/>
     <use x="322.314453" xlink:href="#ArialMT-65"/>
     <use x="377.929688" xlink:href="#ArialMT-72"/>
     <use x="411.230469" xlink:href="#ArialMT-20"/>
     <use x="439.013672" xlink:href="#ArialMT-68"/>
     <use x="494.628906" xlink:href="#ArialMT-61"/>
     <use x="550.244141" xlink:href="#ArialMT-73"/>
     <use x="600.244141" xlink:href="#ArialMT-20"/>
     <use x="628.027344" xlink:href="#ArialMT-66"/>
     <use x="655.810547" xlink:href="#ArialMT-72"/>
     <use x="689.111328" xlink:href="#ArialMT-69"/>
     <use x="711.328125" xlink:href="#ArialMT-65"/>
     <use x="766.943359" xlink:href="#ArialMT-6e"/>
     <use x="822.558594" xlink:href="#ArialMT-64"/>
     <use x="878.173828" xlink:href="#ArialMT-73"/>
    </g>
    <!--  (which have used login via App) -->
    <defs>
     <path d="M 23.390625 -21.046875 
Q 16.109375 -11.859375 11.078125 0.4375 
Q 6.0625 12.75 6.0625 25.921875 
Q 6.0625 37.546875 9.8125 48.1875 
Q 14.203125 60.546875 23.390625 72.796875 
L 29.6875 72.796875 
Q 23.78125 62.640625 21.875 58.296875 
Q 18.890625 51.5625 17.1875 44.234375 
Q 15.09375 35.109375 15.09375 25.875 
Q 15.09375 2.390625 29.6875 -21.046875 
z
" id="ArialMT-28"/>
     <path d="M 16.15625 0 
L 0.296875 51.859375 
L 9.375 51.859375 
L 17.625 21.921875 
L 20.703125 10.796875 
Q 20.90625 11.625 23.390625 21.484375 
L 31.640625 51.859375 
L 40.671875 51.859375 
L 48.4375 21.78125 
L 51.03125 11.859375 
L 54 21.875 
L 62.890625 51.859375 
L 71.4375 51.859375 
L 55.21875 0 
L 46.09375 0 
L 37.84375 31.0625 
L 35.84375 39.890625 
L 25.34375 0 
z
" id="ArialMT-77"/>
     <path d="M 21 0 
L 1.265625 51.859375 
L 10.546875 51.859375 
L 21.6875 20.796875 
Q 23.484375 15.765625 25 10.359375 
Q 26.171875 14.453125 28.265625 20.21875 
L 39.796875 51.859375 
L 48.828125 51.859375 
L 29.203125 0 
z
" id="ArialMT-76"/>
     <path d="M 6.390625 0 
L 6.390625 71.578125 
L 15.1875 71.578125 
L 15.1875 0 
z
" id="ArialMT-6c"/>
     <path d="M 4.984375 -4.296875 
L 13.53125 -5.5625 
Q 14.0625 -9.515625 16.5 -11.328125 
Q 19.78125 -13.765625 25.4375 -13.765625 
Q 31.546875 -13.765625 34.859375 -11.328125 
Q 38.1875 -8.890625 39.359375 -4.5 
Q 40.046875 -1.8125 39.984375 6.78125 
Q 34.234375 0 25.640625 0 
Q 14.9375 0 9.078125 7.71875 
Q 3.21875 15.4375 3.21875 26.21875 
Q 3.21875 33.640625 5.90625 39.90625 
Q 8.59375 46.1875 13.6875 49.609375 
Q 18.796875 53.03125 25.6875 53.03125 
Q 34.859375 53.03125 40.828125 45.609375 
L 40.828125 51.859375 
L 48.921875 51.859375 
L 48.921875 7.03125 
Q 48.921875 -5.078125 46.453125 -10.125 
Q 44 -15.1875 38.640625 -18.109375 
Q 33.296875 -21.046875 25.484375 -21.046875 
Q 16.21875 -21.046875 10.5 -16.875 
Q 4.78125 -12.703125 4.984375 -4.296875 
z
M 12.25 26.859375 
Q 12.25 16.65625 16.296875 11.96875 
Q 20.359375 7.28125 26.46875 7.28125 
Q 32.515625 7.28125 36.609375 11.9375 
Q 40.71875 16.609375 40.71875 26.5625 
Q 40.71875 36.078125 36.5 40.90625 
Q 32.28125 45.75 26.3125 45.75 
Q 20.453125 45.75 16.34375 40.984375 
Q 12.25 36.234375 12.25 26.859375 
z
" id="ArialMT-67"/>
     <path d="M -0.140625 0 
L 27.34375 71.578125 
L 37.546875 71.578125 
L 66.84375 0 
L 56.0625 0 
L 47.703125 21.6875 
L 17.78125 21.6875 
L 9.90625 0 
z
M 20.515625 29.390625 
L 44.78125 29.390625 
L 37.3125 49.21875 
Q 33.890625 58.25 32.234375 64.0625 
Q 30.859375 57.171875 28.375 50.390625 
z
" id="ArialMT-41"/>
     <path d="M 6.59375 -19.875 
L 6.59375 51.859375 
L 14.59375 51.859375 
L 14.59375 45.125 
Q 17.4375 49.078125 21 51.046875 
Q 24.5625 53.03125 29.640625 53.03125 
Q 36.28125 53.03125 41.359375 49.609375 
Q 46.4375 46.1875 49.015625 39.953125 
Q 51.609375 33.734375 51.609375 26.3125 
Q 51.609375 18.359375 48.75 11.984375 
Q 45.90625 5.609375 40.453125 2.21875 
Q 35.015625 -1.171875 29 -1.171875 
Q 24.609375 -1.171875 21.109375 0.6875 
Q 17.625 2.546875 15.375 5.375 
L 15.375 -19.875 
z
M 14.546875 25.640625 
Q 14.546875 15.625 18.59375 10.84375 
Q 22.65625 6.0625 28.421875 6.0625 
Q 34.28125 6.0625 38.453125 11.015625 
Q 42.625 15.96875 42.625 26.375 
Q 42.625 36.28125 38.546875 41.203125 
Q 34.46875 46.140625 28.8125 46.140625 
Q 23.1875 46.140625 18.859375 40.890625 
Q 14.546875 35.640625 14.546875 25.640625 
z
" id="ArialMT-70"/>
     <path d="M 12.359375 -21.046875 
L 6.0625 -21.046875 
Q 20.65625 2.390625 20.65625 25.875 
Q 20.65625 35.0625 18.5625 44.09375 
Q 16.890625 51.421875 13.921875 58.15625 
Q 12.015625 62.546875 6.0625 72.796875 
L 12.359375 72.796875 
Q 21.53125 60.546875 25.921875 48.1875 
Q 29.6875 37.546875 29.6875 25.921875 
Q 29.6875 12.75 24.625 0.4375 
Q 19.578125 -11.859375 12.359375 -21.046875 
z
" id="ArialMT-29"/>
    </defs>
    <g style="fill:#262626;" transform="translate(41.998131 84.288625)scale(0.12 -0.12)">
     <use xlink:href="#ArialMT-20"/>
     <use x="27.783203" xlink:href="#ArialMT-28"/>
     <use x="61.083984" xlink:href="#ArialMT-77"/>
     <use x="133.300781" xlink:href="#ArialMT-68"/>
     <use x="188.916016" xlink:href="#ArialMT-69"/>
     <use x="211.132812" xlink:href="#ArialMT-63"/>
     <use x="261.132812" xlink:href="#ArialMT-68"/>
     <use x="316.748047" xlink:href="#ArialMT-20"/>
     <use x="344.53125" xlink:href="#ArialMT-68"/>
     <use x="400.146484" xlink:href="#ArialMT-61"/>
     <use x="455.761719" xlink:href="#ArialMT-76"/>
     <use x="505.761719" xlink:href="#ArialMT-65"/>
     <use x="561.376953" xlink:href="#ArialMT-20"/>
     <use x="589.160156" xlink:href="#ArialMT-75"/>
     <use x="644.775391" xlink:href="#ArialMT-73"/>
     <use x="694.775391" xlink:href="#ArialMT-65"/>
     <use x="750.390625" xlink:href="#ArialMT-64"/>
     <use x="806.005859" xlink:href="#ArialMT-20"/>
     <use x="833.789062" xlink:href="#ArialMT-6c"/>
     <use x="856.005859" xlink:href="#ArialMT-6f"/>
     <use x="911.621094" xlink:href="#ArialMT-67"/>
     <use x="967.236328" xlink:href="#ArialMT-69"/>
     <use x="989.453125" xlink:href="#ArialMT-6e"/>
     <use x="1045.068359" xlink:href="#ArialMT-20"/>
     <use x="1072.851562" xlink:href="#ArialMT-76"/>
     <use x="1122.851562" xlink:href="#ArialMT-69"/>
     <use x="1145.068359" xlink:href="#ArialMT-61"/>
     <use x="1200.683594" xlink:href="#ArialMT-20"/>
     <use x="1228.388672" xlink:href="#ArialMT-41"/>
     <use x="1295.087891" xlink:href="#ArialMT-70"/>
     <use x="1350.703125" xlink:href="#ArialMT-70"/>
     <use x="1406.318359" xlink:href="#ArialMT-29"/>
    </g>
   </g>
  </g>
  <g id="axes_2">
   <g id="patch_6">
    <path d="M 279.649971 748.971429 
L 1399.7 748.971429 
L 1399.7 90.4 
L 279.649971 90.4 
z
" style="fill:#ffffff;"/>
   </g>
   <g id="matplotlib.axis_3">
    <g id="xtick_1">
     <g id="line2d_1">
      <path clip-path="url(#pab9b0aa27b)" d="M 299.650864 748.971429 
L 299.650864 90.4 
" style="fill:none;stroke:#d3d3d3;stroke-linecap:round;"/>
     </g>
     <g id="line2d_2"/>
     <g id="text_6">
      <!-- 0 -->
      <defs>
       <path d="M 4.15625 35.296875 
Q 4.15625 48 6.765625 55.734375 
Q 9.375 63.484375 14.515625 67.671875 
Q 19.671875 71.875 27.484375 71.875 
Q 33.25 71.875 37.59375 69.546875 
Q 41.9375 67.234375 44.765625 62.859375 
Q 47.609375 58.5 49.21875 52.21875 
Q 50.828125 45.953125 50.828125 35.296875 
Q 50.828125 22.703125 48.234375 14.96875 
Q 45.65625 7.234375 40.5 3 
Q 35.359375 -1.21875 27.484375 -1.21875 
Q 17.140625 -1.21875 11.234375 6.203125 
Q 4.15625 15.140625 4.15625 35.296875 
z
M 13.1875 35.296875 
Q 13.1875 17.671875 17.3125 11.828125 
Q 21.4375 6 27.484375 6 
Q 33.546875 6 37.671875 11.859375 
Q 41.796875 17.71875 41.796875 35.296875 
Q 41.796875 52.984375 37.671875 58.78125 
Q 33.546875 64.59375 27.390625 64.59375 
Q 21.34375 64.59375 17.71875 59.46875 
Q 13.1875 52.9375 13.1875 35.296875 
z
" id="ArialMT-30"/>
      </defs>
      <g style="fill:#262626;" transform="translate(296.870396 763.129241)scale(0.1 -0.1)">
       <use xlink:href="#ArialMT-30"/>
      </g>
     </g>
    </g>
    <g id="xtick_2">
     <g id="line2d_3">
      <path clip-path="url(#pab9b0aa27b)" d="M 339.652651 748.971429 
L 339.652651 90.4 
" style="fill:none;stroke:#d3d3d3;stroke-linecap:round;"/>
     </g>
     <g id="line2d_4"/>
     <g id="text_7">
      <!-- 1 -->
      <g style="fill:#262626;" transform="translate(336.872182 763.129241)scale(0.1 -0.1)">
       <use xlink:href="#ArialMT-31"/>
      </g>
     </g>
    </g>
    <g id="xtick_3">
     <g id="line2d_5">
      <path clip-path="url(#pab9b0aa27b)" d="M 379.654438 748.971429 
L 379.654438 90.4 
" style="fill:none;stroke:#d3d3d3;stroke-linecap:round;"/>
     </g>
     <g id="line2d_6"/>
     <g id="text_8">
      <!-- 2 -->
      <g style="fill:#262626;" transform="translate(376.873969 763.129241)scale(0.1 -0.1)">
       <use xlink:href="#ArialMT-32"/>
      </g>
     </g>
    </g>
    <g id="xtick_4">
     <g id="line2d_7">
      <path clip-path="url(#pab9b0aa27b)" d="M 419.656225 748.971429 
L 419.656225 90.4 
" style="fill:none;stroke:#d3d3d3;stroke-linecap:round;"/>
     </g>
     <g id="line2d_8"/>
     <g id="text_9">
      <!-- 3 -->
      <g style="fill:#262626;" transform="translate(416.875756 763.129241)scale(0.1 -0.1)">
       <use xlink:href="#ArialMT-33"/>
      </g>
     </g>
    </g>
    <g id="xtick_5">
     <g id="line2d_9">
      <path clip-path="url(#pab9b0aa27b)" d="M 459.658011 748.971429 
L 459.658011 90.4 
" style="fill:none;stroke:#d3d3d3;stroke-linecap:round;"/>
     </g>
     <g id="line2d_10"/>
     <g id="text_10">
      <!-- 4 -->
      <defs>
       <path d="M 32.328125 0 
L 32.328125 17.140625 
L 1.265625 17.140625 
L 1.265625 25.203125 
L 33.9375 71.578125 
L 41.109375 71.578125 
L 41.109375 25.203125 
L 50.78125 25.203125 
L 50.78125 17.140625 
L 41.109375 17.140625 
L 41.109375 0 
z
M 32.328125 25.203125 
L 32.328125 57.46875 
L 9.90625 25.203125 
z
" id="ArialMT-34"/>
      </defs>
      <g style="fill:#262626;" transform="translate(456.877543 763.129241)scale(0.1 -0.1)">
       <use xlink:href="#ArialMT-34"/>
      </g>
     </g>
    </g>
    <g id="xtick_6">
     <g id="line2d_11">
      <path clip-path="url(#pab9b0aa27b)" d="M 499.659798 748.971429 
L 499.659798 90.4 
" style="fill:none;stroke:#d3d3d3;stroke-linecap:round;"/>
     </g>
     <g id="line2d_12"/>
     <g id="text_11">
      <!-- 5 -->
      <defs>
       <path d="M 4.15625 18.75 
L 13.375 19.53125 
Q 14.40625 12.796875 18.140625 9.390625 
Q 21.875 6 27.15625 6 
Q 33.5 6 37.890625 10.78125 
Q 42.28125 15.578125 42.28125 23.484375 
Q 42.28125 31 38.0625 35.34375 
Q 33.84375 39.703125 27 39.703125 
Q 22.75 39.703125 19.328125 37.765625 
Q 15.921875 35.84375 13.96875 32.765625 
L 5.71875 33.84375 
L 12.640625 70.609375 
L 48.25 70.609375 
L 48.25 62.203125 
L 19.671875 62.203125 
L 15.828125 42.96875 
Q 22.265625 47.46875 29.34375 47.46875 
Q 38.71875 47.46875 45.15625 40.96875 
Q 51.609375 34.46875 51.609375 24.265625 
Q 51.609375 14.546875 45.953125 7.46875 
Q 39.0625 -1.21875 27.15625 -1.21875 
Q 17.390625 -1.21875 11.203125 4.25 
Q 5.03125 9.71875 4.15625 18.75 
z
" id="ArialMT-35"/>
      </defs>
      <g style="fill:#262626;" transform="translate(496.879329 763.129241)scale(0.1 -0.1)">
       <use xlink:href="#ArialMT-35"/>
      </g>
     </g>
    </g>
    <g id="xtick_7">
     <g id="line2d_13">
      <path clip-path="url(#pab9b0aa27b)" d="M 539.661585 748.971429 
L 539.661585 90.4 
" style="fill:none;stroke:#d3d3d3;stroke-linecap:round;"/>
     </g>
     <g id="line2d_14"/>
     <g id="text_12">
      <!-- 6 -->
      <g style="fill:#262626;" transform="translate(536.881116 763.129241)scale(0.1 -0.1)">
       <use xlink:href="#ArialMT-36"/>
      </g>
     </g>
    </g>
    <g id="xtick_8">
     <g id="line2d_15">
      <path clip-path="url(#pab9b0aa27b)" d="M 579.663372 748.971429 
L 579.663372 90.4 
" style="fill:none;stroke:#d3d3d3;stroke-linecap:round;"/>
     </g>
     <g id="line2d_16"/>
     <g id="text_13">
      <!-- 7 -->
      <g style="fill:#262626;" transform="translate(576.882903 763.129241)scale(0.1 -0.1)">
       <use xlink:href="#ArialMT-37"/>
      </g>
     </g>
    </g>
    <g id="xtick_9">
     <g id="line2d_17">
      <path clip-path="url(#pab9b0aa27b)" d="M 619.665158 748.971429 
L 619.665158 90.4 
" style="fill:none;stroke:#d3d3d3;stroke-linecap:round;"/>
     </g>
     <g id="line2d_18"/>
     <g id="text_14">
      <!-- 8 -->
      <defs>
       <path d="M 17.671875 38.8125 
Q 12.203125 40.828125 9.5625 44.53125 
Q 6.9375 48.25 6.9375 53.421875 
Q 6.9375 61.234375 12.546875 66.546875 
Q 18.171875 71.875 27.484375 71.875 
Q 36.859375 71.875 42.578125 66.421875 
Q 48.296875 60.984375 48.296875 53.171875 
Q 48.296875 48.1875 45.671875 44.5 
Q 43.0625 40.828125 37.75 38.8125 
Q 44.34375 36.671875 47.78125 31.875 
Q 51.21875 27.09375 51.21875 20.453125 
Q 51.21875 11.28125 44.71875 5.03125 
Q 38.234375 -1.21875 27.640625 -1.21875 
Q 17.046875 -1.21875 10.546875 5.046875 
Q 4.046875 11.328125 4.046875 20.703125 
Q 4.046875 27.6875 7.59375 32.390625 
Q 11.140625 37.109375 17.671875 38.8125 
z
M 15.921875 53.71875 
Q 15.921875 48.640625 19.1875 45.40625 
Q 22.46875 42.1875 27.6875 42.1875 
Q 32.765625 42.1875 36.015625 45.375 
Q 39.265625 48.578125 39.265625 53.21875 
Q 39.265625 58.0625 35.90625 61.359375 
Q 32.5625 64.65625 27.59375 64.65625 
Q 22.5625 64.65625 19.234375 61.421875 
Q 15.921875 58.203125 15.921875 53.71875 
z
M 13.09375 20.65625 
Q 13.09375 16.890625 14.875 13.375 
Q 16.65625 9.859375 20.171875 7.921875 
Q 23.6875 6 27.734375 6 
Q 34.03125 6 38.125 10.046875 
Q 42.234375 14.109375 42.234375 20.359375 
Q 42.234375 26.703125 38.015625 30.859375 
Q 33.796875 35.015625 27.4375 35.015625 
Q 21.234375 35.015625 17.15625 30.90625 
Q 13.09375 26.8125 13.09375 20.65625 
z
" id="ArialMT-38"/>
      </defs>
      <g style="fill:#262626;" transform="translate(616.88469 763.129241)scale(0.1 -0.1)">
       <use xlink:href="#ArialMT-38"/>
      </g>
     </g>
    </g>
    <g id="xtick_10">
     <g id="line2d_19">
      <path clip-path="url(#pab9b0aa27b)" d="M 659.666945 748.971429 
L 659.666945 90.4 
" style="fill:none;stroke:#d3d3d3;stroke-linecap:round;"/>
     </g>
     <g id="line2d_20"/>
     <g id="text_15">
      <!-- 9 -->
      <g style="fill:#262626;" transform="translate(656.886476 763.129241)scale(0.1 -0.1)">
       <use xlink:href="#ArialMT-39"/>
      </g>
     </g>
    </g>
    <g id="xtick_11">
     <g id="line2d_21">
      <path clip-path="url(#pab9b0aa27b)" d="M 699.668732 748.971429 
L 699.668732 90.4 
" style="fill:none;stroke:#d3d3d3;stroke-linecap:round;"/>
     </g>
     <g id="line2d_22"/>
     <g id="text_16">
      <!-- 10 -->
      <g style="fill:#262626;" transform="translate(694.107794 763.129241)scale(0.1 -0.1)">
       <use xlink:href="#ArialMT-31"/>
       <use x="55.615234" xlink:href="#ArialMT-30"/>
      </g>
     </g>
    </g>
    <g id="xtick_12">
     <g id="line2d_23">
      <path clip-path="url(#pab9b0aa27b)" d="M 739.670519 748.971429 
L 739.670519 90.4 
" style="fill:none;stroke:#d3d3d3;stroke-linecap:round;"/>
     </g>
     <g id="line2d_24"/>
     <g id="text_17">
      <!-- 11 -->
      <g style="fill:#262626;" transform="translate(734.11505 763.129241)scale(0.1 -0.1)">
       <use xlink:href="#ArialMT-31"/>
       <use x="55.505859" xlink:href="#ArialMT-31"/>
      </g>
     </g>
    </g>
    <g id="xtick_13">
     <g id="line2d_25">
      <path clip-path="url(#pab9b0aa27b)" d="M 779.672305 748.971429 
L 779.672305 90.4 
" style="fill:none;stroke:#d3d3d3;stroke-linecap:round;"/>
     </g>
     <g id="line2d_26"/>
     <g id="text_18">
      <!-- 12 -->
      <g style="fill:#262626;" transform="translate(774.111368 763.129241)scale(0.1 -0.1)">
       <use xlink:href="#ArialMT-31"/>
       <use x="55.615234" xlink:href="#ArialMT-32"/>
      </g>
     </g>
    </g>
    <g id="xtick_14">
     <g id="line2d_27">
      <path clip-path="url(#pab9b0aa27b)" d="M 819.674092 748.971429 
L 819.674092 90.4 
" style="fill:none;stroke:#d3d3d3;stroke-linecap:round;"/>
     </g>
     <g id="line2d_28"/>
     <g id="text_19">
      <!-- 13 -->
      <g style="fill:#262626;" transform="translate(814.113155 763.129241)scale(0.1 -0.1)">
       <use xlink:href="#ArialMT-31"/>
       <use x="55.615234" xlink:href="#ArialMT-33"/>
      </g>
     </g>
    </g>
    <g id="xtick_15">
     <g id="line2d_29">
      <path clip-path="url(#pab9b0aa27b)" d="M 859.675879 748.971429 
L 859.675879 90.4 
" style="fill:none;stroke:#d3d3d3;stroke-linecap:round;"/>
     </g>
     <g id="line2d_30"/>
     <g id="text_20">
      <!-- 14 -->
      <g style="fill:#262626;" transform="translate(854.114941 763.129241)scale(0.1 -0.1)">
       <use xlink:href="#ArialMT-31"/>
       <use x="55.615234" xlink:href="#ArialMT-34"/>
      </g>
     </g>
    </g>
    <g id="xtick_16">
     <g id="line2d_31">
      <path clip-path="url(#pab9b0aa27b)" d="M 899.677666 748.971429 
L 899.677666 90.4 
" style="fill:none;stroke:#d3d3d3;stroke-linecap:round;"/>
     </g>
     <g id="line2d_32"/>
     <g id="text_21">
      <!-- 15 -->
      <g style="fill:#262626;" transform="translate(894.116728 763.129241)scale(0.1 -0.1)">
       <use xlink:href="#ArialMT-31"/>
       <use x="55.615234" xlink:href="#ArialMT-35"/>
      </g>
     </g>
    </g>
    <g id="xtick_17">
     <g id="line2d_33">
      <path clip-path="url(#pab9b0aa27b)" d="M 939.679452 748.971429 
L 939.679452 90.4 
" style="fill:none;stroke:#d3d3d3;stroke-linecap:round;"/>
     </g>
     <g id="line2d_34"/>
     <g id="text_22">
      <!-- 17 -->
      <g style="fill:#262626;" transform="translate(934.118515 763.129241)scale(0.1 -0.1)">
       <use xlink:href="#ArialMT-31"/>
       <use x="55.615234" xlink:href="#ArialMT-37"/>
      </g>
     </g>
    </g>
    <g id="xtick_18">
     <g id="line2d_35">
      <path clip-path="url(#pab9b0aa27b)" d="M 979.681239 748.971429 
L 979.681239 90.4 
" style="fill:none;stroke:#d3d3d3;stroke-linecap:round;"/>
     </g>
     <g id="line2d_36"/>
     <g id="text_23">
      <!-- 16 -->
      <g style="fill:#262626;" transform="translate(974.120302 763.129241)scale(0.1 -0.1)">
       <use xlink:href="#ArialMT-31"/>
       <use x="55.615234" xlink:href="#ArialMT-36"/>
      </g>
     </g>
    </g>
    <g id="xtick_19">
     <g id="line2d_37">
      <path clip-path="url(#pab9b0aa27b)" d="M 1019.683026 748.971429 
L 1019.683026 90.4 
" style="fill:none;stroke:#d3d3d3;stroke-linecap:round;"/>
     </g>
     <g id="line2d_38"/>
     <g id="text_24">
      <!-- 18 -->
      <g style="fill:#262626;" transform="translate(1014.122088 763.129241)scale(0.1 -0.1)">
       <use xlink:href="#ArialMT-31"/>
       <use x="55.615234" xlink:href="#ArialMT-38"/>
      </g>
     </g>
    </g>
    <g id="xtick_20">
     <g id="line2d_39">
      <path clip-path="url(#pab9b0aa27b)" d="M 1059.684813 748.971429 
L 1059.684813 90.4 
" style="fill:none;stroke:#d3d3d3;stroke-linecap:round;"/>
     </g>
     <g id="line2d_40"/>
     <g id="text_25">
      <!-- 20 -->
      <g style="fill:#262626;" transform="translate(1054.123875 763.129241)scale(0.1 -0.1)">
       <use xlink:href="#ArialMT-32"/>
       <use x="55.615234" xlink:href="#ArialMT-30"/>
      </g>
     </g>
    </g>
    <g id="xtick_21">
     <g id="line2d_41">
      <path clip-path="url(#pab9b0aa27b)" d="M 1099.686599 748.971429 
L 1099.686599 90.4 
" style="fill:none;stroke:#d3d3d3;stroke-linecap:round;"/>
     </g>
     <g id="line2d_42"/>
     <g id="text_26">
      <!-- 21 -->
      <g style="fill:#262626;" transform="translate(1094.125662 763.129241)scale(0.1 -0.1)">
       <use xlink:href="#ArialMT-32"/>
       <use x="55.615234" xlink:href="#ArialMT-31"/>
      </g>
     </g>
    </g>
    <g id="xtick_22">
     <g id="line2d_43">
      <path clip-path="url(#pab9b0aa27b)" d="M 1139.688386 748.971429 
L 1139.688386 90.4 
" style="fill:none;stroke:#d3d3d3;stroke-linecap:round;"/>
     </g>
     <g id="line2d_44"/>
     <g id="text_27">
      <!-- 27 -->
      <g style="fill:#262626;" transform="translate(1134.127449 763.129241)scale(0.1 -0.1)">
       <use xlink:href="#ArialMT-32"/>
       <use x="55.615234" xlink:href="#ArialMT-37"/>
      </g>
     </g>
    </g>
    <g id="xtick_23">
     <g id="line2d_45">
      <path clip-path="url(#pab9b0aa27b)" d="M 1179.690173 748.971429 
L 1179.690173 90.4 
" style="fill:none;stroke:#d3d3d3;stroke-linecap:round;"/>
     </g>
     <g id="line2d_46"/>
     <g id="text_28">
      <!-- 22 -->
      <g style="fill:#262626;" transform="translate(1174.129235 763.129241)scale(0.1 -0.1)">
       <use xlink:href="#ArialMT-32"/>
       <use x="55.615234" xlink:href="#ArialMT-32"/>
      </g>
     </g>
    </g>
    <g id="xtick_24">
     <g id="line2d_47">
      <path clip-path="url(#pab9b0aa27b)" d="M 1219.69196 748.971429 
L 1219.69196 90.4 
" style="fill:none;stroke:#d3d3d3;stroke-linecap:round;"/>
     </g>
     <g id="line2d_48"/>
     <g id="text_29">
      <!-- 23 -->
      <g style="fill:#262626;" transform="translate(1214.131022 763.129241)scale(0.1 -0.1)">
       <use xlink:href="#ArialMT-32"/>
       <use x="55.615234" xlink:href="#ArialMT-33"/>
      </g>
     </g>
    </g>
    <g id="xtick_25">
     <g id="line2d_49">
      <path clip-path="url(#pab9b0aa27b)" d="M 1259.693746 748.971429 
L 1259.693746 90.4 
" style="fill:none;stroke:#d3d3d3;stroke-linecap:round;"/>
     </g>
     <g id="line2d_50"/>
     <g id="text_30">
      <!-- 19 -->
      <g style="fill:#262626;" transform="translate(1254.132809 763.129241)scale(0.1 -0.1)">
       <use xlink:href="#ArialMT-31"/>
       <use x="55.615234" xlink:href="#ArialMT-39"/>
      </g>
     </g>
    </g>
    <g id="xtick_26">
     <g id="line2d_51">
      <path clip-path="url(#pab9b0aa27b)" d="M 1299.695533 748.971429 
L 1299.695533 90.4 
" style="fill:none;stroke:#d3d3d3;stroke-linecap:round;"/>
     </g>
     <g id="line2d_52"/>
     <g id="text_31">
      <!-- 26 -->
      <g style="fill:#262626;" transform="translate(1294.134596 763.129241)scale(0.1 -0.1)">
       <use xlink:href="#ArialMT-32"/>
       <use x="55.615234" xlink:href="#ArialMT-36"/>
      </g>
     </g>
    </g>
    <g id="xtick_27">
     <g id="line2d_53">
      <path clip-path="url(#pab9b0aa27b)" d="M 1339.69732 748.971429 
L 1339.69732 90.4 
" style="fill:none;stroke:#d3d3d3;stroke-linecap:round;"/>
     </g>
     <g id="line2d_54"/>
     <g id="text_32">
      <!-- 25 -->
      <g style="fill:#262626;" transform="translate(1334.136382 763.129241)scale(0.1 -0.1)">
       <use xlink:href="#ArialMT-32"/>
       <use x="55.615234" xlink:href="#ArialMT-35"/>
      </g>
     </g>
    </g>
    <g id="xtick_28">
     <g id="line2d_55">
      <path clip-path="url(#pab9b0aa27b)" d="M 1379.699107 748.971429 
L 1379.699107 90.4 
" style="fill:none;stroke:#d3d3d3;stroke-linecap:round;"/>
     </g>
     <g id="line2d_56"/>
     <g id="text_33">
      <!-- 32 -->
      <g style="fill:#262626;" transform="translate(1374.138169 763.129241)scale(0.1 -0.1)">
       <use xlink:href="#ArialMT-33"/>
       <use x="55.615234" xlink:href="#ArialMT-32"/>
      </g>
     </g>
    </g>
    <g id="text_34">
     <!-- Number of Friends -->
     <defs>
      <path d="M 14.703125 0 
L 6.546875 0 
L 6.546875 71.578125 
L 15.328125 71.578125 
L 15.328125 46.046875 
Q 20.90625 53.03125 29.546875 53.03125 
Q 34.328125 53.03125 38.59375 51.09375 
Q 42.875 49.171875 45.625 45.671875 
Q 48.390625 42.1875 49.953125 37.25 
Q 51.515625 32.328125 51.515625 26.703125 
Q 51.515625 13.375 44.921875 6.09375 
Q 38.328125 -1.171875 29.109375 -1.171875 
Q 19.921875 -1.171875 14.703125 6.5 
z
M 14.59375 26.3125 
Q 14.59375 17 17.140625 12.84375 
Q 21.296875 6.0625 28.375 6.0625 
Q 34.125 6.0625 38.328125 11.0625 
Q 42.53125 16.0625 42.53125 25.984375 
Q 42.53125 36.140625 38.5 40.96875 
Q 34.46875 45.796875 28.765625 45.796875 
Q 23 45.796875 18.796875 40.796875 
Q 14.59375 35.796875 14.59375 26.3125 
z
" id="ArialMT-62"/>
      <path d="M 8.203125 0 
L 8.203125 71.578125 
L 56.5 71.578125 
L 56.5 63.140625 
L 17.671875 63.140625 
L 17.671875 40.96875 
L 51.265625 40.96875 
L 51.265625 32.515625 
L 17.671875 32.515625 
L 17.671875 0 
z
" id="ArialMT-46"/>
     </defs>
     <g style="fill:#262626;" transform="translate(794.134126 776.990335)scale(0.11 -0.11)">
      <use xlink:href="#ArialMT-4e"/>
      <use x="72.216797" xlink:href="#ArialMT-75"/>
      <use x="127.832031" xlink:href="#ArialMT-6d"/>
      <use x="211.132812" xlink:href="#ArialMT-62"/>
      <use x="266.748047" xlink:href="#ArialMT-65"/>
      <use x="322.363281" xlink:href="#ArialMT-72"/>
      <use x="355.664062" xlink:href="#ArialMT-20"/>
      <use x="383.447266" xlink:href="#ArialMT-6f"/>
      <use x="439.0625" xlink:href="#ArialMT-66"/>
      <use x="466.845703" xlink:href="#ArialMT-20"/>
      <use x="494.628906" xlink:href="#ArialMT-46"/>
      <use x="555.712891" xlink:href="#ArialMT-72"/>
      <use x="589.013672" xlink:href="#ArialMT-69"/>
      <use x="611.230469" xlink:href="#ArialMT-65"/>
      <use x="666.845703" xlink:href="#ArialMT-6e"/>
      <use x="722.460938" xlink:href="#ArialMT-64"/>
      <use x="778.076172" xlink:href="#ArialMT-73"/>
     </g>
    </g>
   </g>
   <g id="matplotlib.axis_4">
    <g id="ytick_1">
     <g id="line2d_57">
      <path clip-path="url(#pab9b0aa27b)" d="M 279.649971 748.971429 
L 1399.7 748.971429 
" style="fill:none;stroke:#d3d3d3;stroke-linecap:round;"/>
     </g>
     <g id="line2d_58"/>
     <g id="text_35">
      <!-- $\mathdefault{0.0}$ -->
      <g style="fill:#262626;" transform="translate(258.649971 752.550335)scale(0.1 -0.1)">
       <use transform="translate(0 0.125)" xlink:href="#ArialMT-30"/>
       <use transform="translate(55.615234 0.125)" xlink:href="#ArialMT-2e"/>
       <use transform="translate(83.398438 0.125)" xlink:href="#ArialMT-30"/>
      </g>
     </g>
    </g>
    <g id="ytick_2">
     <g id="line2d_59">
      <path clip-path="url(#pab9b0aa27b)" d="M 279.649971 628.954038 
L 1399.7 628.954038 
" style="fill:none;stroke:#d3d3d3;stroke-linecap:round;"/>
     </g>
     <g id="line2d_60"/>
     <g id="text_36">
      <!-- $\mathdefault{0.5}$ -->
      <g style="fill:#262626;" transform="translate(258.649971 632.532944)scale(0.1 -0.1)">
       <use transform="translate(0 0.125)" xlink:href="#ArialMT-30"/>
       <use transform="translate(55.615234 0.125)" xlink:href="#ArialMT-2e"/>
       <use transform="translate(83.398438 0.125)" xlink:href="#ArialMT-35"/>
      </g>
     </g>
    </g>
    <g id="ytick_3">
     <g id="line2d_61">
      <path clip-path="url(#pab9b0aa27b)" d="M 279.649971 508.936647 
L 1399.7 508.936647 
" style="fill:none;stroke:#d3d3d3;stroke-linecap:round;"/>
     </g>
     <g id="line2d_62"/>
     <g id="text_37">
      <!-- $\mathdefault{1.0}$ -->
      <g style="fill:#262626;" transform="translate(258.649971 512.515553)scale(0.1 -0.1)">
       <use transform="translate(0 0.125)" xlink:href="#ArialMT-31"/>
       <use transform="translate(55.615234 0.125)" xlink:href="#ArialMT-2e"/>
       <use transform="translate(83.398438 0.125)" xlink:href="#ArialMT-30"/>
      </g>
     </g>
    </g>
    <g id="ytick_4">
     <g id="line2d_63">
      <path clip-path="url(#pab9b0aa27b)" d="M 279.649971 388.919256 
L 1399.7 388.919256 
" style="fill:none;stroke:#d3d3d3;stroke-linecap:round;"/>
     </g>
     <g id="line2d_64"/>
     <g id="text_38">
      <!-- $\mathdefault{1.5}$ -->
      <g style="fill:#262626;" transform="translate(258.649971 392.498162)scale(0.1 -0.1)">
       <use transform="translate(0 0.125)" xlink:href="#ArialMT-31"/>
       <use transform="translate(55.615234 0.125)" xlink:href="#ArialMT-2e"/>
       <use transform="translate(83.398438 0.125)" xlink:href="#ArialMT-35"/>
      </g>
     </g>
    </g>
    <g id="ytick_5">
     <g id="line2d_65">
      <path clip-path="url(#pab9b0aa27b)" d="M 279.649971 268.901865 
L 1399.7 268.901865 
" style="fill:none;stroke:#d3d3d3;stroke-linecap:round;"/>
     </g>
     <g id="line2d_66"/>
     <g id="text_39">
      <!-- $\mathdefault{2.0}$ -->
      <g style="fill:#262626;" transform="translate(258.649971 272.480772)scale(0.1 -0.1)">
       <use transform="translate(0 0.125)" xlink:href="#ArialMT-32"/>
       <use transform="translate(55.615234 0.125)" xlink:href="#ArialMT-2e"/>
       <use transform="translate(83.398438 0.125)" xlink:href="#ArialMT-30"/>
      </g>
     </g>
    </g>
    <g id="ytick_6">
     <g id="line2d_67">
      <path clip-path="url(#pab9b0aa27b)" d="M 279.649971 148.884475 
L 1399.7 148.884475 
" style="fill:none;stroke:#d3d3d3;stroke-linecap:round;"/>
     </g>
     <g id="line2d_68"/>
     <g id="text_40">
      <!-- $\mathdefault{2.5}$ -->
      <g style="fill:#262626;" transform="translate(258.649971 152.463381)scale(0.1 -0.1)">
       <use transform="translate(0 0.125)" xlink:href="#ArialMT-32"/>
       <use transform="translate(55.615234 0.125)" xlink:href="#ArialMT-2e"/>
       <use transform="translate(83.398438 0.125)" xlink:href="#ArialMT-35"/>
      </g>
     </g>
    </g>
    <g id="text_41">
     <!-- Number of Customers -->
     <defs>
      <path d="M 58.796875 25.09375 
L 68.265625 22.703125 
Q 65.28125 11.03125 57.546875 4.90625 
Q 49.8125 -1.21875 38.625 -1.21875 
Q 27.046875 -1.21875 19.796875 3.484375 
Q 12.546875 8.203125 8.765625 17.140625 
Q 4.984375 26.078125 4.984375 36.328125 
Q 4.984375 47.515625 9.25 55.828125 
Q 13.53125 64.15625 21.40625 68.46875 
Q 29.296875 72.796875 38.765625 72.796875 
Q 49.515625 72.796875 56.828125 67.328125 
Q 64.15625 61.859375 67.046875 51.953125 
L 57.71875 49.75 
Q 55.21875 57.5625 50.484375 61.125 
Q 45.75 64.703125 38.578125 64.703125 
Q 30.328125 64.703125 24.78125 60.734375 
Q 19.234375 56.78125 16.984375 50.109375 
Q 14.75 43.453125 14.75 36.375 
Q 14.75 27.25 17.40625 20.4375 
Q 20.0625 13.625 25.671875 10.25 
Q 31.296875 6.890625 37.84375 6.890625 
Q 45.796875 6.890625 51.3125 11.46875 
Q 56.84375 16.0625 58.796875 25.09375 
z
" id="ArialMT-43"/>
     </defs>
     <g style="fill:#262626;" transform="translate(252.463721 473.476574)rotate(-90)scale(0.11 -0.11)">
      <use xlink:href="#ArialMT-4e"/>
      <use x="72.216797" xlink:href="#ArialMT-75"/>
      <use x="127.832031" xlink:href="#ArialMT-6d"/>
      <use x="211.132812" xlink:href="#ArialMT-62"/>
      <use x="266.748047" xlink:href="#ArialMT-65"/>
      <use x="322.363281" xlink:href="#ArialMT-72"/>
      <use x="355.664062" xlink:href="#ArialMT-20"/>
      <use x="383.447266" xlink:href="#ArialMT-6f"/>
      <use x="439.0625" xlink:href="#ArialMT-66"/>
      <use x="466.845703" xlink:href="#ArialMT-20"/>
      <use x="494.628906" xlink:href="#ArialMT-43"/>
      <use x="566.845703" xlink:href="#ArialMT-75"/>
      <use x="622.460938" xlink:href="#ArialMT-73"/>
      <use x="672.460938" xlink:href="#ArialMT-74"/>
      <use x="700.244141" xlink:href="#ArialMT-6f"/>
      <use x="755.859375" xlink:href="#ArialMT-6d"/>
      <use x="839.160156" xlink:href="#ArialMT-65"/>
      <use x="894.775391" xlink:href="#ArialMT-72"/>
      <use x="928.076172" xlink:href="#ArialMT-73"/>
     </g>
    </g>
    <g id="text_42">
     <!-- $\times\mathdefault{10^{3}}\mathdefault{}$ -->
     <defs>
      <path d="M 70.125 53.71875 
L 47.796875 31.296875 
L 70.125 8.984375 
L 64.3125 3.078125 
L 41.890625 25.484375 
L 19.484375 3.078125 
L 13.71875 8.984375 
L 35.984375 31.296875 
L 13.71875 53.71875 
L 19.484375 59.625 
L 41.890625 37.203125 
L 64.3125 59.625 
z
" id="DejaVuSans-d7"/>
     </defs>
     <g style="fill:#262626;" transform="translate(279.649971 87.4)scale(0.1 -0.1)">
      <use transform="translate(0 0.99375)" xlink:href="#DejaVuSans-d7"/>
      <use transform="translate(83.789062 0.99375)" xlink:href="#ArialMT-31"/>
      <use transform="translate(139.404297 0.99375)" xlink:href="#ArialMT-30"/>
      <use transform="translate(196.761875 70.6875)scale(0.7)" xlink:href="#ArialMT-33"/>
     </g>
    </g>
   </g>
   <g id="patch_7">
    <path clip-path="url(#pab9b0aa27b)" d="M 289.650418 748.971429 
L 299.650864 748.971429 
L 299.650864 748.971429 
L 289.650418 748.971429 
z
" style="fill:#4c72b0;"/>
   </g>
   <g id="patch_8">
    <path clip-path="url(#pab9b0aa27b)" d="M 329.652204 748.971429 
L 339.652651 748.971429 
L 339.652651 278.743291 
L 329.652204 278.743291 
z
" style="fill:#4c72b0;"/>
   </g>
   <g id="patch_9">
    <path clip-path="url(#pab9b0aa27b)" d="M 369.653991 748.971429 
L 379.654438 748.971429 
L 379.654438 410.762421 
L 369.653991 410.762421 
z
" style="fill:#4c72b0;"/>
   </g>
   <g id="patch_10">
    <path clip-path="url(#pab9b0aa27b)" d="M 409.655778 748.971429 
L 419.656225 748.971429 
L 419.656225 505.816195 
L 409.655778 505.816195 
z
" style="fill:#4c72b0;"/>
   </g>
   <g id="patch_11">
    <path clip-path="url(#pab9b0aa27b)" d="M 449.657565 748.971429 
L 459.658011 748.971429 
L 459.658011 557.423673 
L 449.657565 557.423673 
z
" style="fill:#4c72b0;"/>
   </g>
   <g id="patch_12">
    <path clip-path="url(#pab9b0aa27b)" d="M 489.659351 748.971429 
L 499.659798 748.971429 
L 499.659798 610.711394 
L 489.659351 610.711394 
z
" style="fill:#4c72b0;"/>
   </g>
   <g id="patch_13">
    <path clip-path="url(#pab9b0aa27b)" d="M 529.661138 748.971429 
L 539.661585 748.971429 
L 539.661585 649.356994 
L 529.661138 649.356994 
z
" style="fill:#4c72b0;"/>
   </g>
   <g id="patch_14">
    <path clip-path="url(#pab9b0aa27b)" d="M 569.662925 748.971429 
L 579.663372 748.971429 
L 579.663372 675.280751 
L 569.662925 675.280751 
z
" style="fill:#4c72b0;"/>
   </g>
   <g id="patch_15">
    <path clip-path="url(#pab9b0aa27b)" d="M 609.664712 748.971429 
L 619.665158 748.971429 
L 619.665158 691.843151 
L 609.664712 691.843151 
z
" style="fill:#4c72b0;"/>
   </g>
   <g id="patch_16">
    <path clip-path="url(#pab9b0aa27b)" d="M 649.666498 748.971429 
L 659.666945 748.971429 
L 659.666945 705.765168 
L 649.666498 705.765168 
z
" style="fill:#4c72b0;"/>
   </g>
   <g id="patch_17">
    <path clip-path="url(#pab9b0aa27b)" d="M 689.668285 748.971429 
L 699.668732 748.971429 
L 699.668732 720.40729 
L 689.668285 720.40729 
z
" style="fill:#4c72b0;"/>
   </g>
   <g id="patch_18">
    <path clip-path="url(#pab9b0aa27b)" d="M 729.670072 748.971429 
L 739.670519 748.971429 
L 739.670519 721.607463 
L 729.670072 721.607463 
z
" style="fill:#4c72b0;"/>
   </g>
   <g id="patch_19">
    <path clip-path="url(#pab9b0aa27b)" d="M 769.671859 748.971429 
L 779.672305 748.971429 
L 779.672305 732.168994 
L 769.671859 732.168994 
z
" style="fill:#4c72b0;"/>
   </g>
   <g id="patch_20">
    <path clip-path="url(#pab9b0aa27b)" d="M 809.673645 748.971429 
L 819.674092 748.971429 
L 819.674092 736.00955 
L 809.673645 736.00955 
z
" style="fill:#4c72b0;"/>
   </g>
   <g id="patch_21">
    <path clip-path="url(#pab9b0aa27b)" d="M 849.675432 748.971429 
L 859.675879 748.971429 
L 859.675879 739.850107 
L 849.675432 739.850107 
z
" style="fill:#4c72b0;"/>
   </g>
   <g id="patch_22">
    <path clip-path="url(#pab9b0aa27b)" d="M 889.677219 748.971429 
L 899.677666 748.971429 
L 899.677666 743.450629 
L 889.677219 743.450629 
z
" style="fill:#4c72b0;"/>
   </g>
   <g id="patch_23">
    <path clip-path="url(#pab9b0aa27b)" d="M 929.679006 748.971429 
L 939.679452 748.971429 
L 939.679452 744.410768 
L 929.679006 744.410768 
z
" style="fill:#4c72b0;"/>
   </g>
   <g id="patch_24">
    <path clip-path="url(#pab9b0aa27b)" d="M 969.680792 748.971429 
L 979.681239 748.971429 
L 979.681239 745.610942 
L 969.680792 745.610942 
z
" style="fill:#4c72b0;"/>
   </g>
   <g id="patch_25">
    <path clip-path="url(#pab9b0aa27b)" d="M 1009.682579 748.971429 
L 1019.683026 748.971429 
L 1019.683026 746.331046 
L 1009.682579 746.331046 
z
" style="fill:#4c72b0;"/>
   </g>
   <g id="patch_26">
    <path clip-path="url(#pab9b0aa27b)" d="M 1049.684366 748.971429 
L 1059.684813 748.971429 
L 1059.684813 747.05115 
L 1049.684366 747.05115 
z
" style="fill:#4c72b0;"/>
   </g>
   <g id="patch_27">
    <path clip-path="url(#pab9b0aa27b)" d="M 1089.686153 748.971429 
L 1099.686599 748.971429 
L 1099.686599 747.771255 
L 1089.686153 747.771255 
z
" style="fill:#4c72b0;"/>
   </g>
   <g id="patch_28">
    <path clip-path="url(#pab9b0aa27b)" d="M 1129.687939 748.971429 
L 1139.688386 748.971429 
L 1139.688386 748.011289 
L 1129.687939 748.011289 
z
" style="fill:#4c72b0;"/>
   </g>
   <g id="patch_29">
    <path clip-path="url(#pab9b0aa27b)" d="M 1169.689726 748.971429 
L 1179.690173 748.971429 
L 1179.690173 748.251324 
L 1169.689726 748.251324 
z
" style="fill:#4c72b0;"/>
   </g>
   <g id="patch_30">
    <path clip-path="url(#pab9b0aa27b)" d="M 1209.691513 748.971429 
L 1219.69196 748.971429 
L 1219.69196 748.251324 
L 1209.691513 748.251324 
z
" style="fill:#4c72b0;"/>
   </g>
   <g id="patch_31">
    <path clip-path="url(#pab9b0aa27b)" d="M 1249.6933 748.971429 
L 1259.693746 748.971429 
L 1259.693746 748.491359 
L 1249.6933 748.491359 
z
" style="fill:#4c72b0;"/>
   </g>
   <g id="patch_32">
    <path clip-path="url(#pab9b0aa27b)" d="M 1289.695086 748.971429 
L 1299.695533 748.971429 
L 1299.695533 748.491359 
L 1289.695086 748.491359 
z
" style="fill:#4c72b0;"/>
   </g>
   <g id="patch_33">
    <path clip-path="url(#pab9b0aa27b)" d="M 1329.696873 748.971429 
L 1339.69732 748.971429 
L 1339.69732 748.491359 
L 1329.696873 748.491359 
z
" style="fill:#4c72b0;"/>
   </g>
   <g id="patch_34">
    <path clip-path="url(#pab9b0aa27b)" d="M 1369.69866 748.971429 
L 1379.699107 748.971429 
L 1379.699107 748.731394 
L 1369.69866 748.731394 
z
" style="fill:#4c72b0;"/>
   </g>
   <g id="patch_35">
    <path clip-path="url(#pab9b0aa27b)" d="M 299.650864 748.971429 
L 309.651311 748.971429 
L 309.651311 121.760544 
L 299.650864 121.760544 
z
" style="fill:#55a868;"/>
   </g>
   <g id="patch_36">
    <path clip-path="url(#pab9b0aa27b)" d="M 339.652651 748.971429 
L 349.653098 748.971429 
L 349.653098 748.971429 
L 339.652651 748.971429 
z
" style="fill:#55a868;"/>
   </g>
   <g id="patch_37">
    <path clip-path="url(#pab9b0aa27b)" d="M 379.654438 748.971429 
L 389.654884 748.971429 
L 389.654884 748.971429 
L 379.654438 748.971429 
z
" style="fill:#55a868;"/>
   </g>
   <g id="patch_38">
    <path clip-path="url(#pab9b0aa27b)" d="M 419.656225 748.971429 
L 429.656671 748.971429 
L 429.656671 748.971429 
L 419.656225 748.971429 
z
" style="fill:#55a868;"/>
   </g>
   <g id="patch_39">
    <path clip-path="url(#pab9b0aa27b)" d="M 459.658011 748.971429 
L 469.658458 748.971429 
L 469.658458 748.971429 
L 459.658011 748.971429 
z
" style="fill:#55a868;"/>
   </g>
   <g id="patch_40">
    <path clip-path="url(#pab9b0aa27b)" d="M 499.659798 748.971429 
L 509.660245 748.971429 
L 509.660245 748.971429 
L 499.659798 748.971429 
z
" style="fill:#55a868;"/>
   </g>
   <g id="patch_41">
    <path clip-path="url(#pab9b0aa27b)" d="M 539.661585 748.971429 
L 549.662032 748.971429 
L 549.662032 748.971429 
L 539.661585 748.971429 
z
" style="fill:#55a868;"/>
   </g>
   <g id="patch_42">
    <path clip-path="url(#pab9b0aa27b)" d="M 579.663372 748.971429 
L 589.663818 748.971429 
L 589.663818 748.971429 
L 579.663372 748.971429 
z
" style="fill:#55a868;"/>
   </g>
   <g id="patch_43">
    <path clip-path="url(#pab9b0aa27b)" d="M 619.665158 748.971429 
L 629.665605 748.971429 
L 629.665605 748.971429 
L 619.665158 748.971429 
z
" style="fill:#55a868;"/>
   </g>
   <g id="patch_44">
    <path clip-path="url(#pab9b0aa27b)" d="M 659.666945 748.971429 
L 669.667392 748.971429 
L 669.667392 748.971429 
L 659.666945 748.971429 
z
" style="fill:#55a868;"/>
   </g>
   <g id="patch_45">
    <path clip-path="url(#pab9b0aa27b)" d="M 699.668732 748.971429 
L 709.669179 748.971429 
L 709.669179 748.971429 
L 699.668732 748.971429 
z
" style="fill:#55a868;"/>
   </g>
   <g id="patch_46">
    <path clip-path="url(#pab9b0aa27b)" d="M 739.670519 748.971429 
L 749.670965 748.971429 
L 749.670965 748.971429 
L 739.670519 748.971429 
z
" style="fill:#55a868;"/>
   </g>
   <g id="patch_47">
    <path clip-path="url(#pab9b0aa27b)" d="M 779.672305 748.971429 
L 789.672752 748.971429 
L 789.672752 748.971429 
L 779.672305 748.971429 
z
" style="fill:#55a868;"/>
   </g>
   <g id="patch_48">
    <path clip-path="url(#pab9b0aa27b)" d="M 819.674092 748.971429 
L 829.674539 748.971429 
L 829.674539 748.971429 
L 819.674092 748.971429 
z
" style="fill:#55a868;"/>
   </g>
   <g id="patch_49">
    <path clip-path="url(#pab9b0aa27b)" d="M 859.675879 748.971429 
L 869.676326 748.971429 
L 869.676326 748.971429 
L 859.675879 748.971429 
z
" style="fill:#55a868;"/>
   </g>
   <g id="patch_50">
    <path clip-path="url(#pab9b0aa27b)" d="M 899.677666 748.971429 
L 909.678112 748.971429 
L 909.678112 748.971429 
L 899.677666 748.971429 
z
" style="fill:#55a868;"/>
   </g>
   <g id="patch_51">
    <path clip-path="url(#pab9b0aa27b)" d="M 939.679452 748.971429 
L 949.679899 748.971429 
L 949.679899 748.971429 
L 939.679452 748.971429 
z
" style="fill:#55a868;"/>
   </g>
   <g id="patch_52">
    <path clip-path="url(#pab9b0aa27b)" d="M 979.681239 748.971429 
L 989.681686 748.971429 
L 989.681686 748.971429 
L 979.681239 748.971429 
z
" style="fill:#55a868;"/>
   </g>
   <g id="patch_53">
    <path clip-path="url(#pab9b0aa27b)" d="M 1019.683026 748.971429 
L 1029.683473 748.971429 
L 1029.683473 748.971429 
L 1019.683026 748.971429 
z
" style="fill:#55a868;"/>
   </g>
   <g id="patch_54">
    <path clip-path="url(#pab9b0aa27b)" d="M 1059.684813 748.971429 
L 1069.685259 748.971429 
L 1069.685259 748.971429 
L 1059.684813 748.971429 
z
" style="fill:#55a868;"/>
   </g>
   <g id="patch_55">
    <path clip-path="url(#pab9b0aa27b)" d="M 1099.686599 748.971429 
L 1109.687046 748.971429 
L 1109.687046 748.971429 
L 1099.686599 748.971429 
z
" style="fill:#55a868;"/>
   </g>
   <g id="patch_56">
    <path clip-path="url(#pab9b0aa27b)" d="M 1139.688386 748.971429 
L 1149.688833 748.971429 
L 1149.688833 748.971429 
L 1139.688386 748.971429 
z
" style="fill:#55a868;"/>
   </g>
   <g id="patch_57">
    <path clip-path="url(#pab9b0aa27b)" d="M 1179.690173 748.971429 
L 1189.69062 748.971429 
L 1189.69062 748.971429 
L 1179.690173 748.971429 
z
" style="fill:#55a868;"/>
   </g>
   <g id="patch_58">
    <path clip-path="url(#pab9b0aa27b)" d="M 1219.69196 748.971429 
L 1229.692406 748.971429 
L 1229.692406 748.971429 
L 1219.69196 748.971429 
z
" style="fill:#55a868;"/>
   </g>
   <g id="patch_59">
    <path clip-path="url(#pab9b0aa27b)" d="M 1259.693746 748.971429 
L 1269.694193 748.971429 
L 1269.694193 748.971429 
L 1259.693746 748.971429 
z
" style="fill:#55a868;"/>
   </g>
   <g id="patch_60">
    <path clip-path="url(#pab9b0aa27b)" d="M 1299.695533 748.971429 
L 1309.69598 748.971429 
L 1309.69598 748.971429 
L 1299.695533 748.971429 
z
" style="fill:#55a868;"/>
   </g>
   <g id="patch_61">
    <path clip-path="url(#pab9b0aa27b)" d="M 1339.69732 748.971429 
L 1349.697767 748.971429 
L 1349.697767 748.971429 
L 1339.69732 748.971429 
z
" style="fill:#55a868;"/>
   </g>
   <g id="patch_62">
    <path clip-path="url(#pab9b0aa27b)" d="M 1379.699107 748.971429 
L 1389.699553 748.971429 
L 1389.699553 748.971429 
L 1379.699107 748.971429 
z
" style="fill:#55a868;"/>
   </g>
   <g id="patch_63">
    <path d="M 279.649971 748.971429 
L 279.649971 90.4 
" style="fill:none;"/>
   </g>
   <g id="patch_64">
    <path d="M 1399.7 748.971429 
L 1399.7 90.4 
" style="fill:none;"/>
   </g>
   <g id="patch_65">
    <path d="M 279.649971 748.971429 
L 1399.7 748.971429 
" style="fill:none;"/>
   </g>
   <g id="patch_66">
    <path d="M 279.649971 90.4 
L 1399.7 90.4 
" style="fill:none;"/>
   </g>
   <g id="text_43">
    <!-- Friends per Customer -->
    <g style="fill:#262626;" transform="translate(781.659673 84.4)scale(0.12 -0.12)">
     <use xlink:href="#ArialMT-46"/>
     <use x="61.083984" xlink:href="#ArialMT-72"/>
     <use x="94.384766" xlink:href="#ArialMT-69"/>
     <use x="116.601562" xlink:href="#ArialMT-65"/>
     <use x="172.216797" xlink:href="#ArialMT-6e"/>
     <use x="227.832031" xlink:href="#ArialMT-64"/>
     <use x="283.447266" xlink:href="#ArialMT-73"/>
     <use x="333.447266" xlink:href="#ArialMT-20"/>
     <use x="361.230469" xlink:href="#ArialMT-70"/>
     <use x="416.845703" xlink:href="#ArialMT-65"/>
     <use x="472.460938" xlink:href="#ArialMT-72"/>
     <use x="505.761719" xlink:href="#ArialMT-20"/>
     <use x="533.544922" xlink:href="#ArialMT-43"/>
     <use x="605.761719" xlink:href="#ArialMT-75"/>
     <use x="661.376953" xlink:href="#ArialMT-73"/>
     <use x="711.376953" xlink:href="#ArialMT-74"/>
     <use x="739.160156" xlink:href="#ArialMT-6f"/>
     <use x="794.775391" xlink:href="#ArialMT-6d"/>
     <use x="878.076172" xlink:href="#ArialMT-65"/>
     <use x="933.691406" xlink:href="#ArialMT-72"/>
    </g>
   </g>
  </g>
  <g id="axes_3">
   <g id="PathCollection_1">
    <path clip-path="url(#p1d46744740)" d="M 91.709924 786.751948 
L 88.342215 797.116693 
L 77.444077 797.116693 
L 86.260856 803.522458 
L 82.893146 813.887203 
L 91.709924 807.481438 
L 100.526703 813.887203 
L 97.158993 803.522458 
L 105.975772 797.116693 
L 95.077634 797.116693 
z
" style="fill:#5ec962;fill-opacity:0.6;stroke:#5ec962;stroke-opacity:0.6;stroke-width:0.3;"/>
    <path clip-path="url(#p1d46744740)" d="M 123.501227 838.798184 
L 118.356965 854.630594 
L 101.709784 854.630594 
L 115.177636 864.415561 
L 110.033374 880.247971 
L 123.501227 870.463003 
L 136.969079 880.247971 
L 131.824817 864.415561 
L 145.292669 854.630594 
L 128.645488 854.630594 
z
" style="fill:#fde725;fill-opacity:0.6;stroke:#fde725;stroke-opacity:0.6;stroke-width:0.3;"/>
    <path clip-path="url(#p1d46744740)" d="M 155.292529 897.135395 
L 151.924819 907.50014 
L 141.026681 907.50014 
L 149.84346 913.905905 
L 146.47575 924.27065 
L 155.292529 917.864885 
L 164.109307 924.27065 
L 160.741597 913.905905 
L 169.558376 907.50014 
L 158.660238 907.50014 
z
" style="fill:#fde725;fill-opacity:0.6;stroke:#fde725;stroke-opacity:0.6;stroke-width:0.3;"/>
    <path clip-path="url(#p1d46744740)" d="M 187.083831 927.22771 
L 182.32117 941.885674 
L 166.908875 941.885673 
L 179.377684 950.944793 
L 174.615023 965.602756 
L 187.083831 956.543636 
L 199.552639 965.602756 
L 194.789978 950.944793 
L 207.258786 941.885673 
L 191.846491 941.885674 
z
" style="fill:#5ec962;fill-opacity:0.6;stroke:#5ec962;stroke-opacity:0.6;stroke-width:0.3;"/>
    <path clip-path="url(#p1d46744740)" d="M 218.875133 959.49199 
L 216.930785 965.476078 
L 210.638742 965.476078 
L 215.729112 969.174448 
L 213.784763 975.158536 
L 218.875133 971.460166 
L 223.965502 975.158536 
L 222.021154 969.174448 
L 227.111524 965.476078 
L 220.819481 965.476078 
z
" style="fill:#5ec962;fill-opacity:0.6;stroke:#5ec962;stroke-opacity:0.6;stroke-width:0.3;"/>
    <path clip-path="url(#p1d46744740)" d="M 250.666435 973.505338 
L 247.298725 983.870083 
L 236.400587 983.870083 
L 245.217366 990.275847 
L 241.849656 1000.640593 
L 250.666435 994.234828 
L 259.483214 1000.640593 
L 256.115504 990.275847 
L 264.932283 983.870083 
L 254.034145 983.870083 
z
" style="fill:#3b528b;fill-opacity:0.6;stroke:#3b528b;stroke-opacity:0.6;stroke-width:0.3;"/>
    <path clip-path="url(#p1d46744740)" d="M 282.457737 988.265915 
L 279.090027 998.63066 
L 268.191889 998.63066 
L 277.008668 1005.036425 
L 273.640958 1015.40117 
L 282.457737 1008.995405 
L 291.274516 1015.40117 
L 287.906806 1005.036425 
L 296.723585 998.63066 
L 285.825447 998.63066 
z
" style="fill:#440154;fill-opacity:0.6;stroke:#440154;stroke-opacity:0.6;stroke-width:0.3;"/>
    <path clip-path="url(#p1d46744740)" d="M 314.249039 990.254542 
L 309.104778 1006.086951 
L 292.457597 1006.086951 
L 305.925449 1015.871918 
L 300.781187 1031.704328 
L 314.249039 1021.919361 
L 327.716891 1031.704328 
L 322.572629 1015.871918 
L 336.040482 1006.086951 
L 319.393301 1006.086951 
z
" style="fill:#21918c;fill-opacity:0.6;stroke:#21918c;stroke-opacity:0.6;stroke-width:0.3;"/>
    <path clip-path="url(#p1d46744740)" d="M 346.040341 1010.833128 
L 344.095993 1016.817216 
L 337.80395 1016.817216 
L 342.89432 1020.515586 
L 340.949972 1026.499674 
L 346.040341 1022.801304 
L 351.130711 1026.499674 
L 349.186363 1020.515586 
L 354.276732 1016.817216 
L 347.984689 1016.817216 
z
" style="fill:#5ec962;fill-opacity:0.6;stroke:#5ec962;stroke-opacity:0.6;stroke-width:0.3;"/>
    <path clip-path="url(#p1d46744740)" d="M 377.831643 1003.597653 
L 373.068983 1018.255617 
L 357.656688 1018.255616 
L 370.125496 1027.314736 
L 365.362835 1041.972699 
L 377.831643 1032.913579 
L 390.300452 1041.972699 
L 385.53779 1027.314736 
L 398.006599 1018.255616 
L 382.594304 1018.255617 
z
" style="fill:#440154;fill-opacity:0.6;stroke:#440154;stroke-opacity:0.6;stroke-width:0.3;"/>
    <path clip-path="url(#p1d46744740)" d="M 409.622946 1021.74312 
L 407.678597 1027.727208 
L 401.386554 1027.727208 
L 406.476924 1031.425578 
L 404.532576 1037.409666 
L 409.622946 1033.711296 
L 414.713315 1037.409666 
L 412.768967 1031.425578 
L 417.859337 1027.727208 
L 411.567294 1027.727208 
z
" style="fill:#fde725;fill-opacity:0.6;stroke:#fde725;stroke-opacity:0.6;stroke-width:0.3;"/>
    <path clip-path="url(#p1d46744740)" d="M 441.414248 1015.861777 
L 438.046538 1026.226522 
L 427.1484 1026.226522 
L 435.965179 1032.632286 
L 432.597469 1042.997032 
L 441.414248 1036.591267 
L 450.231026 1042.997032 
L 446.863316 1032.632286 
L 455.680095 1026.226522 
L 444.781957 1026.226522 
z
" style="fill:#fde725;fill-opacity:0.6;stroke:#fde725;stroke-opacity:0.6;stroke-width:0.3;"/>
    <path clip-path="url(#p1d46744740)" d="M 473.20555 1026.235469 
L 471.261202 1032.219558 
L 464.969159 1032.219558 
L 470.059528 1035.917928 
L 468.11518 1041.902016 
L 473.20555 1038.203646 
L 478.295919 1041.902016 
L 476.351571 1035.917928 
L 481.441941 1032.219558 
L 475.149898 1032.219558 
z
" style="fill:#440154;fill-opacity:0.6;stroke:#440154;stroke-opacity:0.6;stroke-width:0.3;"/>
    <path clip-path="url(#p1d46744740)" d="M 504.996852 1015.149409 
L 500.234191 1029.807373 
L 484.821897 1029.807373 
L 497.290705 1038.866492 
L 492.528044 1053.524455 
L 504.996852 1044.465335 
L 517.46566 1053.524455 
L 512.702999 1038.866492 
L 525.171807 1029.807373 
L 509.759513 1029.807373 
z
" style="fill:#fde725;fill-opacity:0.6;stroke:#fde725;stroke-opacity:0.6;stroke-width:0.3;"/>
    <path clip-path="url(#p1d46744740)" d="M 536.788154 1020.508994 
L 532.899458 1032.477171 
L 520.315372 1032.477171 
L 530.496111 1039.873911 
L 526.607415 1051.842088 
L 536.788154 1044.445348 
L 546.968893 1051.842088 
L 543.080197 1039.873911 
L 553.260936 1032.477171 
L 540.67685 1032.477171 
z
" style="fill:#5ec962;fill-opacity:0.6;stroke:#5ec962;stroke-opacity:0.6;stroke-width:0.3;"/>
    <path clip-path="url(#p1d46744740)" d="M 568.579456 1024.204712 
L 565.211746 1034.569457 
L 554.313608 1034.569457 
L 563.130387 1040.975221 
L 559.762677 1051.339967 
L 568.579456 1044.934202 
L 577.396235 1051.339967 
L 574.028525 1040.975221 
L 582.845304 1034.569457 
L 571.947166 1034.569457 
z
" style="fill:#5ec962;fill-opacity:0.6;stroke:#5ec962;stroke-opacity:0.6;stroke-width:0.3;"/>
    <path clip-path="url(#p1d46744740)" d="M 632.16206 1018.358231 
L 627.3994 1033.016194 
L 611.987105 1033.016194 
L 624.455913 1042.075313 
L 619.693252 1056.733276 
L 632.16206 1047.674156 
L 644.630868 1056.733276 
L 639.868207 1042.075313 
L 652.337016 1033.016194 
L 636.924721 1033.016194 
z
" style="fill:#fde725;fill-opacity:0.6;stroke:#fde725;stroke-opacity:0.6;stroke-width:0.3;"/>
    <path clip-path="url(#p1d46744740)" d="M 600.370758 1031.369583 
L 598.42641 1037.353671 
L 592.134367 1037.353671 
L 597.224737 1041.052041 
L 595.280389 1047.03613 
L 600.370758 1043.33776 
L 605.461128 1047.03613 
L 603.51678 1041.052041 
L 608.607149 1037.353671 
L 602.315106 1037.353671 
z
" style="fill:#fde725;fill-opacity:0.6;stroke:#fde725;stroke-opacity:0.6;stroke-width:0.3;"/>
    <path clip-path="url(#p1d46744740)" d="M 663.953362 1020.939962 
L 659.605668 1034.320791 
L 645.536232 1034.32079 
L 656.918645 1042.590597 
L 652.57095 1055.971426 
L 663.953362 1047.701619 
L 675.335775 1055.971426 
L 670.98808 1042.590597 
L 682.370493 1034.32079 
L 668.301057 1034.320791 
z
" style="fill:#3b528b;fill-opacity:0.6;stroke:#3b528b;stroke-opacity:0.6;stroke-width:0.3;"/>
    <path clip-path="url(#p1d46744740)" d="M 727.535967 1028.332472 
L 724.786243 1036.795251 
L 715.887951 1036.795251 
L 723.086821 1042.025536 
L 720.337097 1050.488315 
L 727.535967 1045.25803 
L 734.734836 1050.488315 
L 731.985113 1042.025536 
L 739.183983 1036.795251 
L 730.28569 1036.795251 
z
" style="fill:#5ec962;fill-opacity:0.6;stroke:#5ec962;stroke-opacity:0.6;stroke-width:0.3;"/>
    <path clip-path="url(#p1d46744740)" d="M 759.327269 1019.641759 
L 754.564608 1034.299722 
L 739.152313 1034.299722 
L 751.621122 1043.358841 
L 746.858461 1058.016805 
L 759.327269 1048.957685 
L 771.796077 1058.016805 
L 767.033416 1043.358841 
L 779.502224 1034.299722 
L 764.08993 1034.299722 
z
" style="fill:#440154;fill-opacity:0.6;stroke:#440154;stroke-opacity:0.6;stroke-width:0.3;"/>
    <path clip-path="url(#p1d46744740)" d="M 950.075081 1021.581726 
L 945.727387 1034.962555 
L 931.657951 1034.962555 
L 943.040364 1043.232361 
L 938.692669 1056.61319 
L 950.075081 1048.343383 
L 961.457494 1056.61319 
L 957.109799 1043.232361 
L 968.492212 1034.962555 
L 954.422776 1034.962555 
z
" style="fill:#fde725;fill-opacity:0.6;stroke:#fde725;stroke-opacity:0.6;stroke-width:0.3;"/>
    <path clip-path="url(#p1d46744740)" d="M 791.118571 1023.717816 
L 787.229875 1035.685992 
L 774.645789 1035.685992 
L 784.826528 1043.082732 
L 780.937832 1055.050909 
L 791.118571 1047.654169 
L 801.29931 1055.050909 
L 797.410614 1043.082732 
L 807.591353 1035.685992 
L 795.007267 1035.685992 
z
" style="fill:#5ec962;fill-opacity:0.6;stroke:#5ec962;stroke-opacity:0.6;stroke-width:0.3;"/>
    <path clip-path="url(#p1d46744740)" d="M 822.909873 1023.717816 
L 819.021177 1035.685992 
L 806.437091 1035.685992 
L 816.61783 1043.082732 
L 812.729134 1055.050909 
L 822.909873 1047.654169 
L 833.090612 1055.050909 
L 829.201916 1043.082732 
L 839.382655 1035.685992 
L 826.798569 1035.685992 
z
" style="fill:#5ec962;fill-opacity:0.6;stroke:#5ec962;stroke-opacity:0.6;stroke-width:0.3;"/>
    <path clip-path="url(#p1d46744740)" d="M 695.744665 1026.130004 
L 692.376955 1036.494749 
L 681.478817 1036.494749 
L 690.295596 1042.900514 
L 686.927886 1053.265259 
L 695.744665 1046.859494 
L 704.561443 1053.265259 
L 701.193733 1042.900514 
L 710.010512 1036.494749 
L 699.112374 1036.494749 
z
" style="fill:#21918c;fill-opacity:0.6;stroke:#21918c;stroke-opacity:0.6;stroke-width:0.3;"/>
    <path clip-path="url(#p1d46744740)" d="M 918.283779 1026.130004 
L 914.91607 1036.494749 
L 904.017932 1036.494749 
L 912.834711 1042.900514 
L 909.467001 1053.265259 
L 918.283779 1046.859494 
L 927.100558 1053.265259 
L 923.732848 1042.900514 
L 932.549627 1036.494749 
L 921.651489 1036.494749 
z
" style="fill:#21918c;fill-opacity:0.6;stroke:#21918c;stroke-opacity:0.6;stroke-width:0.3;"/>
    <path clip-path="url(#p1d46744740)" d="M 886.492477 1026.130004 
L 883.124768 1036.494749 
L 872.22663 1036.494749 
L 881.043408 1042.900514 
L 877.675698 1053.265259 
L 886.492477 1046.859494 
L 895.309256 1053.265259 
L 891.941546 1042.900514 
L 900.758325 1036.494749 
L 889.860187 1036.494749 
z
" style="fill:#21918c;fill-opacity:0.6;stroke:#21918c;stroke-opacity:0.6;stroke-width:0.3;"/>
    <path clip-path="url(#p1d46744740)" d="M 1109.031592 1028.974236 
L 1106.281869 1037.437015 
L 1097.383576 1037.437015 
L 1104.582446 1042.6673 
L 1101.832722 1051.130079 
L 1109.031592 1045.899794 
L 1116.230462 1051.130079 
L 1113.480738 1042.6673 
L 1120.679608 1037.437015 
L 1111.781316 1037.437015 
z
" style="fill:#3b528b;fill-opacity:0.6;stroke:#3b528b;stroke-opacity:0.6;stroke-width:0.3;"/>
   </g>
  </g>
  <g id="axes_4">
   <g id="patch_67">
    <path d="M 1223.559988 1053.2 
L 1399.7 1053.2 
L 1399.7 789.771429 
L 1223.559988 789.771429 
z
" style="fill:#ffffff;"/>
   </g>
   <g id="matplotlib.axis_5">
    <g id="xtick_29">
     <g id="line2d_69">
      <path clip-path="url(#pe57e6929c3)" d="M 1311.629994 1053.2 
L 1311.629994 789.771429 
" style="fill:none;stroke:#d3d3d3;stroke-linecap:round;"/>
     </g>
     <g id="line2d_70"/>
    </g>
   </g>
   <g id="matplotlib.axis_6">
    <g id="ytick_7">
     <g id="line2d_71">
      <path clip-path="url(#pe57e6929c3)" d="M 1223.559988 1041.317659 
L 1399.7 1041.317659 
" style="fill:none;stroke:#d3d3d3;stroke-linecap:round;"/>
     </g>
     <g id="line2d_72"/>
     <g id="text_44">
      <!-- 0 -->
      <g style="fill:#262626;" transform="translate(1406.7 1044.896565)scale(0.1 -0.1)">
       <use xlink:href="#ArialMT-30"/>
      </g>
     </g>
    </g>
    <g id="ytick_8">
     <g id="line2d_73">
      <path clip-path="url(#pe57e6929c3)" d="M 1223.559988 995.475293 
L 1399.7 995.475293 
" style="fill:none;stroke:#d3d3d3;stroke-linecap:round;"/>
     </g>
     <g id="line2d_74"/>
     <g id="text_45">
      <!-- 500 -->
      <g style="fill:#262626;" transform="translate(1406.7 999.054199)scale(0.1 -0.1)">
       <use xlink:href="#ArialMT-35"/>
       <use x="55.615234" xlink:href="#ArialMT-30"/>
       <use x="111.230469" xlink:href="#ArialMT-30"/>
      </g>
     </g>
    </g>
    <g id="ytick_9">
     <g id="line2d_75">
      <path clip-path="url(#pe57e6929c3)" d="M 1223.559988 949.632927 
L 1399.7 949.632927 
" style="fill:none;stroke:#d3d3d3;stroke-linecap:round;"/>
     </g>
     <g id="line2d_76"/>
     <g id="text_46">
      <!-- 1000 -->
      <g style="fill:#262626;" transform="translate(1406.7 953.211833)scale(0.1 -0.1)">
       <use xlink:href="#ArialMT-31"/>
       <use x="55.615234" xlink:href="#ArialMT-30"/>
       <use x="111.230469" xlink:href="#ArialMT-30"/>
       <use x="166.845703" xlink:href="#ArialMT-30"/>
      </g>
     </g>
    </g>
    <g id="ytick_10">
     <g id="line2d_77">
      <path clip-path="url(#pe57e6929c3)" d="M 1223.559988 903.790561 
L 1399.7 903.790561 
" style="fill:none;stroke:#d3d3d3;stroke-linecap:round;"/>
     </g>
     <g id="line2d_78"/>
     <g id="text_47">
      <!-- 1500 -->
      <g style="fill:#262626;" transform="translate(1406.7 907.369467)scale(0.1 -0.1)">
       <use xlink:href="#ArialMT-31"/>
       <use x="55.615234" xlink:href="#ArialMT-35"/>
       <use x="111.230469" xlink:href="#ArialMT-30"/>
       <use x="166.845703" xlink:href="#ArialMT-30"/>
      </g>
     </g>
    </g>
    <g id="ytick_11">
     <g id="line2d_79">
      <path clip-path="url(#pe57e6929c3)" d="M 1223.559988 857.948195 
L 1399.7 857.948195 
" style="fill:none;stroke:#d3d3d3;stroke-linecap:round;"/>
     </g>
     <g id="line2d_80"/>
     <g id="text_48">
      <!-- 2000 -->
      <g style="fill:#262626;" transform="translate(1406.7 861.527101)scale(0.1 -0.1)">
       <use xlink:href="#ArialMT-32"/>
       <use x="55.615234" xlink:href="#ArialMT-30"/>
       <use x="111.230469" xlink:href="#ArialMT-30"/>
       <use x="166.845703" xlink:href="#ArialMT-30"/>
      </g>
     </g>
    </g>
    <g id="ytick_12">
     <g id="line2d_81">
      <path clip-path="url(#pe57e6929c3)" d="M 1223.559988 812.105829 
L 1399.7 812.105829 
" style="fill:none;stroke:#d3d3d3;stroke-linecap:round;"/>
     </g>
     <g id="line2d_82"/>
     <g id="text_49">
      <!-- 2500 -->
      <g style="fill:#262626;" transform="translate(1406.7 815.684735)scale(0.1 -0.1)">
       <use xlink:href="#ArialMT-32"/>
       <use x="55.615234" xlink:href="#ArialMT-35"/>
       <use x="111.230469" xlink:href="#ArialMT-30"/>
       <use x="166.845703" xlink:href="#ArialMT-30"/>
      </g>
     </g>
    </g>
   </g>
   <g id="line2d_83">
    <path clip-path="url(#pe57e6929c3)" d="M 1298.419493 1040.882156 
L 1324.840495 1040.882156 
L 1324.840495 1040.446654 
L 1318.235245 1037.100161 
L 1324.840495 1022.15555 
L 1324.840495 1010.694958 
L 1298.419493 1010.694958 
L 1298.419493 1022.15555 
L 1305.024744 1037.100161 
L 1298.419493 1040.446654 
L 1298.419493 1040.882156 
" style="fill:none;stroke:#4c72b0;stroke-linecap:round;"/>
   </g>
   <g id="line2d_84">
    <path clip-path="url(#pe57e6929c3)" d="M 1311.629994 1040.882156 
L 1311.629994 1041.225974 
" style="fill:none;stroke:#4c72b0;stroke-linecap:round;"/>
   </g>
   <g id="line2d_85">
    <path clip-path="url(#pe57e6929c3)" d="M 1311.629994 1010.694958 
L 1311.629994 861.707269 
" style="fill:none;stroke:#4c72b0;stroke-linecap:round;"/>
   </g>
   <g id="line2d_86">
    <path clip-path="url(#pe57e6929c3)" d="M 1305.024744 1041.225974 
L 1318.235245 1041.225974 
" style="fill:none;stroke:#000000;stroke-linecap:round;"/>
   </g>
   <g id="line2d_87">
    <path clip-path="url(#pe57e6929c3)" d="M 1305.024744 861.707269 
L 1318.235245 861.707269 
" style="fill:none;stroke:#000000;stroke-linecap:round;"/>
   </g>
   <g id="line2d_88">
    <defs>
     <path d="M 0 -3 
L -0.673542 -0.927051 
L -2.85317 -0.927051 
L -1.089814 0.354102 
L -1.763356 2.427051 
L -0 1.145898 
L 1.763356 2.427051 
L 1.089814 0.354102 
L 2.85317 -0.927051 
L 0.673542 -0.927051 
z
" id="m787f7a8769"/>
    </defs>
    <g clip-path="url(#pe57e6929c3)">
     <use style="fill:none;" x="1311.629994" xlink:href="#m787f7a8769" y="801.745455"/>
    </g>
   </g>
   <g id="line2d_89">
    <path clip-path="url(#pe57e6929c3)" d="M 1305.024744 1037.100161 
L 1318.235245 1037.100161 
" style="fill:none;stroke:#c44e52;stroke-linecap:round;"/>
   </g>
   <g id="line2d_90">
    <path clip-path="url(#pe57e6929c3)" d="M 1298.419493 1008.573112 
L 1324.840495 1008.573112 
" style="fill:none;stroke:#c44e52;stroke-dasharray:3.7,1.6;stroke-dashoffset:0;"/>
   </g>
   <g id="patch_68">
    <path d="M 1223.559988 1053.2 
L 1223.559988 789.771429 
" style="fill:none;"/>
   </g>
   <g id="patch_69">
    <path d="M 1399.7 1053.2 
L 1399.7 789.771429 
" style="fill:none;"/>
   </g>
   <g id="patch_70">
    <path d="M 1223.559988 1053.2 
L 1399.7 1053.2 
" style="fill:none;"/>
   </g>
   <g id="patch_71">
    <path d="M 1223.559988 789.771429 
L 1399.7 789.771429 
" style="fill:none;"/>
   </g>
  </g>
  <g id="text_50">
   <!-- Facebook Friends Analysis -->
   <defs>
    <path d="M 6.640625 0 
L 6.640625 71.578125 
L 15.4375 71.578125 
L 15.4375 30.765625 
L 36.234375 51.859375 
L 47.609375 51.859375 
L 27.78125 32.625 
L 49.609375 0 
L 38.765625 0 
L 21.625 26.515625 
L 15.4375 20.5625 
L 15.4375 0 
z
" id="ArialMT-6b"/>
   </defs>
   <g style="fill:#262626;" transform="translate(587.957031 37.347188)scale(0.22 -0.22)">
    <use xlink:href="#ArialMT-46"/>
    <use x="61.083984" xlink:href="#ArialMT-61"/>
    <use x="116.699219" xlink:href="#ArialMT-63"/>
    <use x="166.699219" xlink:href="#ArialMT-65"/>
    <use x="222.314453" xlink:href="#ArialMT-62"/>
    <use x="277.929688" xlink:href="#ArialMT-6f"/>
    <use x="333.544922" xlink:href="#ArialMT-6f"/>
    <use x="389.160156" xlink:href="#ArialMT-6b"/>
    <use x="439.160156" xlink:href="#ArialMT-20"/>
    <use x="466.943359" xlink:href="#ArialMT-46"/>
    <use x="528.027344" xlink:href="#ArialMT-72"/>
    <use x="561.328125" xlink:href="#ArialMT-69"/>
    <use x="583.544922" xlink:href="#ArialMT-65"/>
    <use x="639.160156" xlink:href="#ArialMT-6e"/>
    <use x="694.775391" xlink:href="#ArialMT-64"/>
    <use x="750.390625" xlink:href="#ArialMT-73"/>
    <use x="800.390625" xlink:href="#ArialMT-20"/>
    <use x="828.095703" xlink:href="#ArialMT-41"/>
    <use x="894.794922" xlink:href="#ArialMT-6e"/>
    <use x="950.410156" xlink:href="#ArialMT-61"/>
    <use x="1006.025391" xlink:href="#ArialMT-6c"/>
    <use x="1028.242188" xlink:href="#ArialMT-79"/>
    <use x="1078.242188" xlink:href="#ArialMT-73"/>
    <use x="1128.242188" xlink:href="#ArialMT-69"/>
    <use x="1150.458984" xlink:href="#ArialMT-73"/>
   </g>
  </g>
 </g>
 <defs>
  <clipPath id="pab9b0aa27b">
   <rect height="658.571429" width="1120.050029" x="279.649971" y="90.4"/>
  </clipPath>
  <clipPath id="p1d46744740">
   <rect height="263.428571" width="1120.050029" x="40.3" y="789.771429"/>
  </clipPath>
  <clipPath id="pe57e6929c3">
   <rect height="263.428571" width="176.140012" x="1223.559988" y="789.771429"/>
  </clipPath>
 </defs>
</svg>
